<svg version="1.2" xmlns="http://www.w3.org/2000/svg" viewBox="0 0 180 130" width="180" height="130"><style>.a{fill:#5e6164}.b{fill:#d5d5d5}.c{fill:#f9f9f9}.d{fill:#63564d}.e{fill:#91a19a}.f{fill:#acbdb6}.g{fill:#6c7c6f}</style><path class="a" d="m25.5 3.7c1.6 0.4 10 0.6 18.5 0.4 8.5-0.2 16.4-0.3 17.5-0.3 1.1 0 12.6 0.1 25.5 0.2 12.9 0 27.3 0 32 0 4.7 0 13.4 0.1 19.5 0.3 6.1 0.3 12.5 0.1 14.3-0.4 2.4-0.7 4-0.5 6.4 0.8 1.8 0.9 5.1 2.9 7.3 4.5 2.4 1.8 5.1 5.1 9.2 13.3l-0.4 85-2.4 4.9c-1.3 2.7-4 6.4-5.9 8.3-1.9 1.8-3.9 3.3-4.5 3.3-0.6 0-2.3 0.7-4 1.6-2.4 1.2-4.2 1.3-9 0.6-3.4-0.6-30.9-0.9-63-0.7-31.4 0.1-58.4 0.5-60 0.9-2.2 0.6-4 0.3-6.5-1-1.9-1.1-5.1-3.1-7-4.5-1.9-1.5-4.5-4.6-5.7-7-1.2-2.4-2.4-6.2-2.7-8.4-0.4-2.2-0.6-9.2-0.6-15.5 0-6.3 0-12.3 0-13.3 0-0.9-0.1-2.7-0.2-4-0.1-1.2 0.1-4 0.5-6.2 0.3-2.2 0.2-4.7-0.3-5.5-0.5-0.8-0.6-2-0.2-2.5 0.3-0.5 0.6-9 0.6-18.8 0-12.2 0.3-18.4 1.2-19.5 0.6-0.9 1.5-3 2-4.6 0.6-1.9 3.2-4.4 7.9-7.7 5.9-4.1 7.5-4.8 10-4.2z"/><path class="b" d="m12.1 103l7.4 5.1h141l7.5-5.1v2.8c0 1.6-1.4 4.6-3.5 7.5-1.9 2.6-3.8 4.8-4.3 4.8-0.4 0.1-31.5 0.3-69.2 0.4-37.7 0.1-69.3 0.1-70.3-0.1-0.9-0.2-3.3-2.5-5.2-5.1-2.2-2.9-3.5-5.9-3.5-7.6z"/><path class="c" d="m90 11.1c54.2-0.1 69.2 0.2 69.8 1.2 0.4 0.6 1.6 1.7 2.7 2.3 1.1 0.6 2.9 2.8 3.9 5 1.1 2.1 2.1 6.4 2.2 9.4 0.2 3 0.4 19.9 0.4 37.5 0.1 17.6-0.3 33.1-0.8 34.5-0.5 1.4-2.6 3.6-8.7 7.3h-139l-3.9-2.4c-2.2-1.3-4.3-3.5-4.8-4.9-0.5-1.4-0.9-16.9-0.8-34.5 0-17.6 0.2-34.5 0.4-37.5 0.1-3.1 1.1-7.2 2.3-9.4 1.1-2.1 2.9-4.3 3.9-5 1.1-0.6 2.2-1.6 2.6-2.3 0.6-0.9 17.5-1.2 69.8-1.2z"/><path class="d" d="m90 20.1c1.4 0 13.3 6 26.5 13.3 21.2 11.7 24 13.5 24 15.7 0 1.6-0.6 2.5-2 2.7-1.1 0.2-11.9-5.2-24.8-12.2-12.5-6.9-23.2-12.6-23.7-12.6-0.5 0-11.2 5.7-23.8 12.6-12.8 7-23.6 12.4-24.7 12.2-1.4-0.2-2-1.1-2-2.7 0-2.2 2.8-4 24-15.7 13.2-7.3 25.1-13.3 26.5-13.3zm40 35.9l0.9 2.3c0.5 1.2 0.6 2.4 0.4 2.7-0.3 0.3-2.2 0.7-7.8 1.5l-0.3 11.8c-0.2 11.4-0.1 11.7 2 12.2 1.3 0.3 3.1 0.5 4 0.5 1 0 4.5 2.4 7.8 5.3 3.3 2.8 6 5.9 6 6.7 0 0.8-0.8 2.3-1.8 3.3-1.6 1.6-5 1.8-51.2 1.7-45.5 0-49.6-0.2-51.3-1.8-1-0.9-1.7-2.4-1.7-3.2 0-0.8 2.7-3.9 6-6.7 3.3-2.9 6.8-5.3 7.8-5.3 0.9 0 2.7-0.2 4-0.5 2.1-0.5 2.2-0.8 1.7-24l-3.5-0.3c-1.9-0.2-3.8-0.9-4.2-1.5-0.4-0.7-0.2-2 0.3-2.9 0.9-1.7 3.9-1.8 80.9-1.8z"/><path class="e" d="m89.8 27.1c0.6-0.1 11.3 5.5 23.7 12.4 12.4 6.9 22.9 12.5 23.5 12.5 0.6 0 1 0.3 1 0.7 0 0.5-0.9 2.3-2 4-1.1 1.8-2.7 3.3-3.5 3.3-0.8 0-1.7-0.9-2-2-0.5-2-1.3-2-40.5-2-37.1 0-40.1 0.1-40.9 1.7-0.4 1-0.7 2.4-0.5 3 0.2 0.7-0.3 1.3-1.1 1.3-0.8 0-2.9-1.9-4.5-4.3-1.7-2.3-3-4.5-3-5 0-0.4 0.9-0.7 2-0.7 1.1 0 12-5.6 24.3-12.4 12.2-6.8 22.8-12.5 23.5-12.5z"/><path class="f" d="m131 61.1c0.3 0 0.5 5.8 0.5 12.9 0 12.3-0.1 13-2 13-1.1 0-3-0.2-4.3-0.5-2.1-0.5-2.2-0.8-1.7-24l3.5-0.6c1.9-0.4 3.7-0.7 4-0.8zm-81.9 0.8l7.4 0.6 0.3 11.7c0.2 11.5 0.1 11.8-2 12.3-1.3 0.3-3.1 0.5-4 0.5-1.6 0-1.8-1.2-1.7-12.6z"/><path class="d" d="m89.8 31c1.7 0 4.5 0.7 6.2 1.5 1.7 0.8 3.5 2.5 4.1 3.8 0.6 1.2 1.1 3.8 1.2 5.7 0 1.9-0.7 4.6-1.6 6-0.8 1.4-2.7 3.1-4.1 3.8-1.4 0.6-3.9 1.2-5.6 1.2-1.7 0-4.2-0.6-5.7-1.4-1.6-0.7-3.3-2.4-4-3.7-0.6-1.3-1.4-3.1-1.6-3.9-0.3-0.8-0.1-3.2 0.4-5.3 0.6-2.5 1.9-4.3 4.2-5.7 1.7-1.1 4.7-2 6.5-2z"/><path class="e" d="m74.5 62.5v23l-11.5 0.5-0.2-11.3c-0.1-6.3 0.3-11.7 0.7-12.1 0.5-0.4 3.2-0.6 11-0.1zm42 0l0.5 23.5-11.5-0.5-0.2-10.4c-0.2-5.8 0-11.1 0.2-11.8 0.4-1 2.1-1.3 11-0.8zm-22 30c26.1 0.1 32.4 0.4 34.2 1.6 1.3 0.8 2 1.7 1.6 2.2-0.3 0.4-18.6 0.7-40.5 0.7-21.9 0-40-0.3-40.3-0.7-0.2-0.5 0.6-1.4 1.8-2 1.2-0.7 4.2-1.4 6.7-1.5 2.5-0.2 18.9-0.3 36.5-0.3z"/><path class="f" d="m80.8 62.2l18-0.2 0.2 24h-18l-0.1-11.9z"/><path class="g" d="m90 37c0.3 0 1.5 0.7 2.8 1.5 1.2 0.8 2.2 2.3 2.2 3.3 0 0.9-0.5 2.3-1.2 3-0.7 0.6-2.3 1.2-3.8 1.2-1.4 0-3.1-0.5-3.8-1.2-0.7-0.7-1.3-2.1-1.4-3 0-0.9 1-2.4 2.3-3.3 1.3-0.8 2.6-1.5 2.9-1.5z"/></svg>