<svg version="1.2" xmlns="http://www.w3.org/2000/svg" viewBox="0 0 180 130" width="180" height="130"><style>.a{fill:#5e6164}.b{fill:#d5d5d5}.c{fill:#f9f9f9}</style><path class="a" d="m25.5 3.7c1.6 0.4 10 0.6 18.5 0.4 8.5-0.2 16.4-0.3 17.5-0.3 1.1 0 12.6 0.1 25.5 0.2 12.9 0 27.3 0 32 0 4.7 0 13.4 0.1 19.5 0.3 6.1 0.3 12.5 0.1 14.3-0.4 2.4-0.7 4-0.5 6.4 0.8 1.8 0.9 5.1 2.9 7.3 4.5 2.4 1.8 5.1 5.1 9.2 13.3l-0.4 85-2.4 4.9c-1.3 2.7-4 6.4-5.9 8.3-1.9 1.8-3.9 3.3-4.5 3.3-0.6 0-2.3 0.7-4 1.6-2.4 1.2-4.2 1.3-9 0.6-3.4-0.6-30.9-0.9-63-0.7-31.4 0.1-58.4 0.5-60 0.9-2.2 0.6-4 0.3-6.5-1-1.9-1.1-5.1-3.1-7-4.5-1.9-1.5-4.5-4.6-5.7-7-1.2-2.4-2.4-6.2-2.7-8.4-0.4-2.2-0.6-9.2-0.6-15.5 0-6.3 0-12.3 0-13.3 0-0.9-0.1-2.7-0.2-4-0.1-1.2 0.1-4 0.5-6.2 0.3-2.2 0.2-4.7-0.3-5.5-0.5-0.8-0.6-2-0.2-2.5 0.3-0.5 0.6-9 0.6-18.8 0-12.2 0.3-18.4 1.2-19.5 0.6-0.9 1.5-3 2-4.6 0.6-1.9 3.2-4.4 7.9-7.7 5.9-4.1 7.5-4.8 10-4.2z"/><path class="b" d="m12.1 103l7.4 5.1h141l7.5-5.1v2.8c0 1.6-1.4 4.6-3.5 7.5-1.9 2.6-3.8 4.8-4.3 4.8-0.4 0.1-31.5 0.3-69.2 0.4-37.7 0.1-69.3 0.1-70.3-0.1-0.9-0.2-3.3-2.5-5.2-5.1-2.2-2.9-3.5-5.9-3.5-7.6z"/><path class="c" d="m90 11.1c54.2-0.1 69.2 0.2 69.8 1.2 0.4 0.6 1.6 1.7 2.7 2.3 1.1 0.6 2.9 2.8 3.9 5 1.1 2.1 2.1 6.4 2.2 9.4 0.2 3 0.4 19.9 0.4 37.5 0.1 17.6-0.3 33.1-0.8 34.5-0.5 1.4-2.6 3.6-8.7 7.3h-139l-3.9-2.4c-2.2-1.3-4.3-3.5-4.8-4.9-0.5-1.4-0.9-16.9-0.8-34.5 0-17.6 0.2-34.5 0.4-37.5 0.1-3.1 1.1-7.2 2.3-9.4 1.1-2.1 2.9-4.3 3.9-5 1.1-0.6 2.2-1.6 2.6-2.3 0.6-0.9 17.5-1.2 69.8-1.2z"/></svg>