<svg version="1.2" xmlns="http://www.w3.org/2000/svg" viewBox="0 0 180 130" width="180" height="130"><style>.a{fill:#5e6164}.b{fill:#d5d5d5}.c{fill:#f9f9f9}.d{fill:#63564d}.e{fill:#677253}.f{fill:#95a361}.g{fill:#a6b16d}</style><path class="a" d="m25.5 3.7c1.6 0.4 10 0.6 18.5 0.4 8.5-0.2 16.4-0.3 17.5-0.3 1.1 0 12.6 0.1 25.5 0.2 12.9 0 27.3 0 32 0 4.7 0 13.4 0.1 19.5 0.3 6.1 0.3 12.5 0.1 14.3-0.4 2.4-0.7 4-0.5 6.4 0.8 1.8 0.9 5.1 2.9 7.3 4.5 2.4 1.8 5.1 5.1 9.2 13.3l-0.4 85-2.4 4.9c-1.3 2.7-4 6.4-5.9 8.3-1.9 1.8-3.9 3.3-4.5 3.3-0.6 0-2.3 0.7-4 1.6-2.4 1.2-4.2 1.3-9 0.6-3.4-0.6-30.9-0.9-63-0.7-31.4 0.1-58.4 0.5-60 0.9-2.2 0.6-4 0.3-6.5-1-1.9-1.1-5.1-3.1-7-4.5-1.9-1.5-4.5-4.6-5.7-7-1.2-2.4-2.4-6.2-2.7-8.4-0.4-2.2-0.6-9.2-0.6-15.5 0-6.3 0-12.3 0-13.3 0-0.9-0.1-2.7-0.2-4-0.1-1.2 0.1-4 0.5-6.2 0.3-2.2 0.2-4.7-0.3-5.5-0.5-0.8-0.6-2-0.2-2.5 0.3-0.5 0.6-9 0.6-18.8 0-12.2 0.3-18.4 1.2-19.5 0.6-0.9 1.5-3 2-4.6 0.6-1.9 3.2-4.4 7.9-7.7 5.9-4.1 7.5-4.8 10-4.2z"/><path class="b" d="m12.1 103l7.4 5.1h141l7.5-5.1v2.8c0 1.6-1.4 4.6-3.5 7.5-1.9 2.6-3.8 4.8-4.3 4.8-0.4 0.1-31.5 0.3-69.2 0.4-37.7 0.1-69.3 0.1-70.3-0.1-0.9-0.2-3.3-2.5-5.2-5.1-2.2-2.9-3.5-5.9-3.5-7.6z"/><path class="c" d="m90 11.1c54.2-0.1 69.2 0.2 69.8 1.2 0.4 0.6 1.6 1.7 2.7 2.3 1.1 0.6 2.9 2.8 3.9 5 1.1 2.1 2.1 6.4 2.2 9.4 0.2 3 0.4 19.9 0.4 37.5 0.1 17.6-0.3 33.1-0.8 34.5-0.5 1.4-2.6 3.6-8.7 7.3h-139l-3.9-2.4c-2.2-1.3-4.3-3.5-4.8-4.9-0.5-1.4-0.9-16.9-0.8-34.5 0-17.6 0.2-34.5 0.4-37.5 0.1-3.1 1.1-7.2 2.3-9.4 1.1-2.1 2.9-4.3 3.9-5 1.1-0.6 2.2-1.6 2.6-2.3 0.6-0.9 17.5-1.2 69.8-1.2z"/><path class="d" d="m70.5 21.1c2.8-0.1 5.6 0.4 6.3 1.1 0.7 0.7 1.2 2.3 1.2 3.5 0 2.1 0.3 2.2 3.3 1.5 1.7-0.4 5.7-0.7 8.7-0.7 3 0 7 0.3 8.8 0.7 2.9 0.7 3.2 0.6 3.2-1.5 0-1.2 0.5-2.8 1.2-3.5 0.7-0.6 3.4-1.2 6-1.2 2.6 0 6.8 0.9 9.3 2 3.5 1.6 4.9 2.9 6.4 6.2 1.4 3.2 2.3 8.9 3.3 22.1 0.7 10.3 1.7 17.7 2.3 17.7 0.6 0 2 1 3.1 2.2 1.2 1.3 3.1 4.2 4.3 6.5 1.2 2.5 2.4 7.4 2.7 11.5 0.5 4.8 0.3 8.1-0.5 9.5-0.6 1.3-2.3 3.1-3.9 4-1.9 1.2-6.9 2.1-16.7 3-7.7 0.7-21 1.2-29.5 1.2-8.5 0-21.8-0.5-29.5-1.2-9.8-0.9-14.8-1.8-16.8-3-1.5-0.9-3.2-2.7-3.8-4-0.8-1.4-1-4.7-0.5-9.5 0.3-4.1 1.5-9 2.7-11.5 1.2-2.3 3.1-5.2 4.3-6.5 1.1-1.2 2.6-2.2 3.1-2.2 0.6 0 1.6-7.4 2.3-17.7 1-13.2 1.9-18.9 3.3-22.1 1.4-3.2 2.9-4.7 6.1-6.1 2.4-1.1 6.5-2 9.3-2z"/><path class="e" d="m128.9 76c0.3 0 1.3 1.4 2.2 3.2 0.9 1.8 2 5.1 2.3 7.3 0.4 2.2 0.9 4.9 1.1 6 0.2 1.1 0.1 2.5-0.3 3.2-0.4 0.6-1.8 1.4-5.7 2.4l-0.1-11.1c-0.1-6 0.2-11 0.5-11z"/><path class="e" d="m51 76c0.4 0 0.6 5 0.5 22.1l-2.5-0.6c-1.4-0.4-2.8-1.2-3.2-1.8-0.4-0.7-0.5-2.1-0.3-3.2 0.2-1.1 0.7-3.8 1.1-6 0.3-2.2 1.3-5.5 2.2-7.3 0.8-1.7 1.8-3.2 2.2-3.2z"/><path class="f" d="m120.2 67.7c0.4 0.4 1.2 6.4 1.7 13.3 0.5 6.9 0.5 13.6 0.2 15-0.6 2-1.6 2.6-5.2 3.2-2.4 0.3-14.5 0.7-26.9 0.7-12.4 0-24.5-0.4-26.9-0.7-3.6-0.6-4.6-1.2-5.2-3.2-0.3-1.4-0.2-8.1 0.2-15 0.5-6.9 1.2-12.7 1.7-12.9 0.4-0.2 1.8 0.6 3.2 1.7 1.5 1.3 4.3 2.2 7.2 2.4 3.8 0.2 4.8 0.7 4.8 2 0 1 0.8 2 1.7 2.3 1 0.3 2.4-0.1 3.1-0.7 0.7-0.7 1.3-1.8 1.2-2.3 0-0.6 3.6-1 9-1 5.4 0 9 0.4 9 1-0.1 0.5 0.5 1.6 1.2 2.3 0.7 0.6 2.1 1 3 0.7 1-0.3 1.8-1.3 1.8-2.3 0-1.2 0.7-1.6 2.3-1.3 1.2 0.1 4-0.6 6.2-1.8 2.2-1.1 4.4-2.6 5-3.2 0.5-0.6 1.3-0.7 1.7-0.2z"/><path class="d" d="m70.9 48c0.3 0 1.2 0.4 1.9 0.8 0.9 0.5 1.2 2.6 1 6.9-0.2 3.5 0 6.3 0.4 6.3 0.5 0 1.5-0.2 2.3-0.5 0.8-0.3 2.2 0.1 3 0.7 0.9 0.7 1.6 1.9 1.5 2.5 0 1 2.4 1.3 9 1.3 6.6 0 9-0.3 9-1.3-0.1-0.6 0.6-1.8 1.5-2.5 0.8-0.6 2.3-0.9 3.2-0.6 1 0.3 2 0.6 2.2 0.7 0.3 0.1 0.3-2.7 0.2-6.3-0.3-5.5 0-6.6 1.6-7.3 1.1-0.4 2.3-0.2 3 0.5 0.7 0.7 1.6 4.7 1.9 8.8 0.4 4.3 0.2 8.3-0.3 9.5-0.6 1.1-2.5 2.7-4.2 3.5-1.8 0.9-3.2 2.2-3.1 3.2 0 1-0.8 2-1.8 2.3-0.9 0.3-2.3-0.1-3-0.7-0.7-0.7-1.3-1.8-1.2-2.3 0-0.6-3.6-1-9-1-5.4 0-9 0.4-9 1 0.1 0.5-0.5 1.6-1.2 2.3-0.7 0.6-2.1 1-3.1 0.7-0.9-0.3-1.7-1.3-1.7-2.3 0.1-1-1.3-2.3-3.1-3.2-1.7-0.8-3.6-2.4-4.2-3.5-0.6-1.2-0.7-5-0.2-9.5 0.4-4.1 1.2-8.1 1.7-8.8 0.6-0.6 1.3-1.2 1.7-1.2z"/><path class="g" d="m91.5 32.6c1.7 0.2 4.6 0.9 6.5 1.4 1.9 0.5 5.1 1.9 6.9 3.2 1.9 1.3 4.9 4.1 6.5 6.3 1.7 2.2 4.4 8 6.1 12.8 2.3 6.8 2.7 9.2 1.9 10.5-0.6 0.9-2.8 2.7-5 3.9-2.1 1.3-5 2.2-6.4 2.2-2.3 0-2.4-0.1-0.6-1.2 1.1-0.7 2.8-2.1 3.9-3.2 1.8-1.8 1.9-2.8 1.3-10-0.4-4.4-1.3-8.6-1.9-9.3-0.7-0.8-1.9-1-3-0.5-1.6 0.7-1.9 1.8-1.6 7.3 0.1 3.7-0.1 6.3-0.7 6.1-0.5-0.2-1.5-0.5-2.1-0.7-0.7-0.2-2 0.2-2.8 0.8-0.9 0.7-1.6 1.9-1.5 2.5 0 1-2.4 1.3-9 1.3-6.6 0-9-0.3-9-1.3 0.1-0.6-0.6-1.8-1.5-2.5-0.8-0.6-2.3-0.9-3.2-0.6-1 0.3-2 0.4-2.2 0.2-0.2-0.2-0.3-3-0.2-6.3 0.2-5 0-6.1-1.6-6.8-1.1-0.5-2.3-0.3-3 0.5-0.6 0.7-1.5 4.9-1.9 9.3-0.6 7.2-0.5 8.2 1.3 10 1.1 1.1 2.8 2.5 3.9 3.2 1.6 1 1.2 1.1-2.6 0.6-2.5-0.3-5.8-1.5-7.4-2.7-2.5-1.8-2.8-2.5-2.2-5.6 0.3-1.9 1.7-6.7 3.1-10.5 1.4-3.9 4.2-8.9 6.3-11.4 2-2.4 5-5.1 6.7-5.9 1.7-0.8 5-2.1 7.5-2.8 2.5-0.7 5.8-1.1 7.5-0.8z"/><path class="f" d="m112.4 28.3c2.3 0.4 4.8 1.4 5.6 2.2 0.8 0.9 1.7 4 2 7 0.3 3 0.3 5.5 0 5.5-0.3 0.1-1.8-1.8-3.5-4.1-1.7-2.3-4.2-5-5.8-6-1.5-1.1-2.6-2.6-2.5-3.5 0.1-1.4 0.9-1.6 4.2-1.1z"/><path class="f" d="m69.3 28.1c1.8-0.1 2.7 0.4 2.7 1.4 0 0.8-1.2 2.3-2.7 3.4-1.6 1-4.1 3.7-5.8 6-1.6 2.3-3.2 4.2-3.5 4.1-0.3 0-0.3-2.4 0-5.3 0.3-2.8 1-5.8 1.5-6.5 0.4-0.7 1.8-1.7 2.9-2.2 1.2-0.5 3.3-0.9 4.9-0.9z"/></svg>