<svg version="1.2" xmlns="http://www.w3.org/2000/svg" viewBox="0 0 150 150" width="150" height="150">
	<title>Map</title>
	<style>
		.s0 { fill: #8b8d8f } 
		.s1 { fill: #f9f9f9 } 
		.s2 { fill: #63564d } 
		.s3 { fill: #dd675e } 
		.s4 { fill: #ccc298 } 
		.s5 { fill: #ded4a9 } 
		.s6 { opacity: .1;fill: #ffffff } 
		.s7 { opacity: .4;fill: #ffffff } 
		.s8 { opacity: .8;fill: #ffffff } 
		.s9 { opacity: .9;fill: #ffffff } 
		.s10 { fill: #ffffff } 
		.s11 { opacity: .7;fill: #ffffff } 
		.s12 { opacity: .3;fill: #ffffff } 
		.s13 { opacity: .5;fill: #ffffff } 
	</style>
	<g id="icon_맵">
		<g id="icon_frame(맵)">
			<path id="Path 0" class="s0" d="m30.5 3.2h89l4.8 2.6c3.8 2.2 5.2 3.7 6.9 7.7 1.9 4.5 2.1 6.5 1.9 21.5-0.2 9.1-0.4 35.6-0.4 59-0.2 40.7-0.3 42.6-2.2 45.4-1.1 1.6-3.3 3.8-5 5-2.9 2.1-3.9 2.1-50 2.2-46.4 0.2-47 0.1-50.4-2-1.9-1.1-4.4-3.4-5.5-5.1-2-2.9-2.1-4.1-2.3-45.5 0-23.4-0.2-49.9-0.4-59-0.2-15 0-17 1.9-21.5 1.7-4 3.1-5.5 6.9-7.7z"/>
			<path id="Path 1" class="s1" d="m69.5 10c2.2 0.3 5.1 0.4 6.5 0.3 1.4-0.1 10.4-0.2 20-0.2 9.6 0 18.5 0.2 19.8 0.4 1.2 0.3 3.2 0.7 4.4 1 1.3 0.2 3.2 1.9 4.2 3.7 1.8 3.1 1.9 5.9 1.8 58.8 0 30.5-0.3 57.2-0.6 59.3-0.4 2.3-1.4 4.2-2.9 5.2-1.8 1.2-9.6 1.4-47.7 1.4-38.2 0-45.9-0.2-47.8-1.4-1.4-1-2.4-2.9-2.8-5.2-0.3-2.1-0.6-28.8-0.6-59.3-0.1-52.9 0-55.7 1.8-58.8 1-1.7 2.6-3.5 3.4-3.9 0.8-0.3 9.4-0.9 19-1.2 9.6-0.3 19.3-0.4 21.5-0.1z"/>
		</g>
		<g id="icon_맵">
			<path id="Path 0" class="s2" d="m74.8 24c4.4 0 7.4 0.6 10.5 2.1 2.3 1.2 5.3 3.1 6.5 4.3 1.3 1.1 3.1 3.5 4 5.1 0.9 1.6 2.1 5.5 2.7 8.5 0.7 3.5 0.8 7.6 0.3 11.5-0.5 3.3-2 8.5-3.4 11.5-1.3 3-2.4 6-2.4 6.5 0 0.5 0.5 0.4 1.2-0.3 0.7-0.6 2.5-1.2 4-1.2 1.5 0 6.4 1.8 10.8 4 6.5 3.2 8 4.4 8 6.3 0 1.2-1.9 10.7-4.1 21.2-2.3 10.5-4.7 19.6-5.3 20.3-0.6 0.8-2.1 1.1-3.3 0.8-1.3-0.3-5.2-2.4-15.3-8.6l-7.7 3.5c-4.3 1.9-8.7 3.5-9.8 3.5-1.1 0-5.3-1.8-9.2-4-4-2.2-7.9-4-8.5-4-0.7 0-4.4 1.8-8.3 4-3.8 2.3-8 4.1-9.2 4-1.3 0-2.6-0.8-3-1.7-0.4-1 1.3-9.7 3.6-19.3 2.4-9.6 4.5-18.3 4.7-19.3 0.2-1 3.7-3.3 15.9-9.3l-2.7-6c-1.5-3.2-3.1-8.6-3.6-11.9-0.5-3.8-0.4-8 0.3-11.5 0.6-3 1.8-6.8 2.7-8.5 0.9-1.6 2.7-4 4-5.1 1.2-1.2 4.1-3.1 6.3-4.2 2.8-1.5 6-2.1 10.3-2.2z"/>
			<path id="Path 1" class="s3" d="m75 30c2.7 0 6.3 0.9 8.9 2.3 2.4 1.2 5.2 3.6 6.2 5.2 1 1.6 2.2 5 2.8 7.5 0.8 3.4 0.7 6.2-0.5 11.5-0.8 3.9-2.7 9.2-4.2 12-1.5 2.7-5.1 7.4-13.2 16l-5.3-5.5c-2.8-3.1-6.4-7.8-7.9-10.5-1.5-2.8-3.4-8.1-4.2-12-1.2-5.3-1.3-8.1-0.5-11.5 0.6-2.5 1.8-5.9 2.8-7.5 1-1.6 3.8-4 6.2-5.2 2.7-1.4 6.2-2.3 8.9-2.3z"/>
			<path id="Path 2" class="s4" d="m94.3 80.1c0.4 0-1 6.5-6.9 29.4l-5.6 3c-3.1 1.7-5.9 2.8-6.3 2.5-0.3-0.3 0.5-6.6 4.1-27.5l6.9-3.6c3.9-2 7.3-3.7 7.8-3.8zm-25.7 5.5c2.3 2.2 4.3 4.7 4.3 5.7 0.1 0.9-0.8 6.5-2 12.5-1.1 5.9-2.2 10.9-2.5 11.2-0.2 0.3-2.8-0.8-5.9-2.5-3.7-2-5.3-3.5-5-4.5 0.2-0.8 1.6-6.4 3-12.5 1.4-6 2.8-11.6 3.2-12.4 0.4-1 1.7-0.3 4.9 2.5z"/>
			<path id="Path 3" class="s5" d="m101.5 79c0.3 0 2.6 1 5.1 2.3 4 1.9 4.4 2.5 3.9 4.7-0.4 1.4-0.9 3.4-1.1 4.5-0.2 1.1-1.6 7.7-5.9 27.5l-4.5-2.7c-2.5-1.4-4.9-2.8-5.3-3.2-0.4-0.3 0.6-6.2 2.3-13.1 1.7-6.9 3.5-14.2 4.1-16.3 0.5-2 1.2-3.7 1.4-3.7zm-43.9 1.5c0.1 0.1-1.2 6.2-2.8 13.6-1.7 7.4-3.6 14-4.2 14.8-0.6 0.7-2.8 2.2-4.8 3.2-2.1 1.1-4.2 1.8-4.6 1.7-0.5-0.2 0.6-6.6 5.8-28.3l5.2-2.6c2.8-1.5 5.2-2.6 5.4-2.4z"/>
			<g id="레이어 1">
				<path id="Path 0" class="s6" d="m70.5 43c0.3 0 0.5 0.2 0.5 0.5 0 0.3-0.2 0.5-0.5 0.5-0.3 0-0.5-0.2-0.5-0.5 0-0.3 0.2-0.5 0.5-0.5z"/>
				<path id="Path 1" class="s7" d="m71.5 43c0.3 0 0.5 0.2 0.5 0.5 0 0.3-0.2 0.5-0.5 0.5-0.3 0-0.5-0.2-0.5-0.5 0-0.3 0.2-0.5 0.5-0.5z"/>
				<path id="Path 2" class="s8" d="m72.5 43c0.3 0 0.5 0.2 0.5 0.5 0 0.3-0.2 0.5-0.5 0.5-0.3 0-0.5-0.2-0.5-0.5 0-0.3 0.2-0.5 0.5-0.5z"/>
				<path id="Path 3" class="s9" d="m73.5 43c0.3 0 0.5 0.2 0.5 0.5 0 0.3-0.2 0.5-0.5 0.5-0.3 0-0.5-0.2-0.5-0.5 0-0.3 0.2-0.5 0.5-0.5z"/>
				<path id="Path 4" class="s10" d="m77.3 44.4c1.9 0.7 3.5 2.2 4.3 4.1 0.9 2.3 0.9 3.7 0 5.9-0.6 1.8-2.3 3.5-4.1 4.2-2.3 0.9-3.7 0.9-5.9 0-1.8-0.6-3.5-2.3-4.2-4.1-0.9-2.3-0.9-3.7 0-5.9 0.6-1.7 2.4-3.5 3.9-4.2 2.2-0.9 3.6-0.9 6 0z"/>
				<path id="Path 5" class="s9" d="m75.5 43c0.3 0 0.5 0.2 0.5 0.5 0 0.3-0.2 0.5-0.5 0.5-0.3 0-0.5-0.2-0.5-0.5 0-0.3 0.2-0.5 0.5-0.5z"/>
				<path id="Path 6" class="s11" d="m76.5 43c0.3 0 0.5 0.2 0.5 0.5 0 0.3-0.2 0.5-0.5 0.5-0.3 0-0.5-0.2-0.5-0.5 0-0.3 0.2-0.5 0.5-0.5z"/>
				<path id="Path 7" class="s7" d="m77.5 43c0.3 0 0.5 0.2 0.5 0.5 0 0.3-0.2 0.5-0.5 0.5-0.3 0-0.5-0.2-0.5-0.5 0-0.3 0.2-0.5 0.5-0.5z"/>
				<path id="Path 8" class="s6" d="m78.5 43c0.3 0 0.5 0.2 0.5 0.5 0 0.3-0.2 0.5-0.5 0.5-0.3 0-0.5-0.2-0.5-0.5 0-0.3 0.2-0.5 0.5-0.5z"/>
				<path id="Path 9" class="s12" d="m69.5 44c0.3 0 0.5 0.2 0.5 0.5 0 0.3-0.2 0.5-0.5 0.5-0.3 0-0.5-0.2-0.5-0.5 0-0.3 0.2-0.5 0.5-0.5z"/>
				<path id="Path 10" class="s9" d="m70.5 44c0.3 0 0.5 0.2 0.5 0.5 0 0.3-0.2 0.5-0.5 0.5-0.3 0-0.5-0.2-0.5-0.5 0-0.3 0.2-0.5 0.5-0.5z"/>
				<path id="Path 11" class="s9" d="m78.5 44c0.3 0 0.5 0.2 0.5 0.5 0 0.3-0.2 0.5-0.5 0.5-0.3 0-0.5-0.2-0.5-0.5 0-0.3 0.2-0.5 0.5-0.5z"/>
				<path id="Path 12" class="s12" d="m79.5 44c0.3 0 0.5 0.2 0.5 0.5 0 0.3-0.2 0.5-0.5 0.5-0.3 0-0.5-0.2-0.5-0.5 0-0.3 0.2-0.5 0.5-0.5z"/>
				<path id="Path 13" class="s13" d="m68.5 45c0.3 0 0.5 0.2 0.5 0.5 0 0.3-0.2 0.5-0.5 0.5-0.3 0-0.5-0.2-0.5-0.5 0-0.3 0.2-0.5 0.5-0.5z"/>
				<path id="Path 14" class="s13" d="m80.5 45c0.3 0 0.5 0.2 0.5 0.5 0 0.3-0.2 0.5-0.5 0.5-0.3 0-0.5-0.2-0.5-0.5 0-0.3 0.2-0.5 0.5-0.5z"/>
				<path id="Path 15" class="s12" d="m67.5 46c0.3 0 0.5 0.2 0.5 0.5 0 0.3-0.2 0.5-0.5 0.5-0.3 0-0.5-0.2-0.5-0.5 0-0.3 0.2-0.5 0.5-0.5z"/>
				<path id="Path 16" class="s12" d="m81.5 46c0.3 0 0.5 0.2 0.5 0.5 0 0.3-0.2 0.5-0.5 0.5-0.3 0-0.5-0.2-0.5-0.5 0-0.3 0.2-0.5 0.5-0.5z"/>
				<path id="Path 17" class="s6" d="m66.5 47c0.3 0 0.5 0.2 0.5 0.5 0 0.3-0.2 0.5-0.5 0.5-0.3 0-0.5-0.2-0.5-0.5 0-0.3 0.2-0.5 0.5-0.5z"/>
				<path id="Path 18" class="s9" d="m67.5 47c0.3 0 0.5 0.2 0.5 0.5 0 0.3-0.2 0.5-0.5 0.5-0.3 0-0.5-0.2-0.5-0.5 0-0.3 0.2-0.5 0.5-0.5z"/>
				<path id="Path 19" class="s9" d="m81.5 47c0.3 0 0.5 0.2 0.5 0.5 0 0.3-0.2 0.5-0.5 0.5-0.3 0-0.5-0.2-0.5-0.5 0-0.3 0.2-0.5 0.5-0.5z"/>
				<path id="Path 20" class="s6" d="m82.5 47c0.3 0 0.5 0.2 0.5 0.5 0 0.3-0.2 0.5-0.5 0.5-0.3 0-0.5-0.2-0.5-0.5 0-0.3 0.2-0.5 0.5-0.5z"/>
				<path id="Path 21" class="s7" d="m66.5 48c0.3 0 0.5 0.2 0.5 0.5 0 0.3-0.2 0.5-0.5 0.5-0.3 0-0.5-0.2-0.5-0.5 0-0.3 0.2-0.5 0.5-0.5z"/>
				<path id="Path 22" class="s7" d="m82.5 48c0.3 0 0.5 0.2 0.5 0.5 0 0.3-0.2 0.5-0.5 0.5-0.3 0-0.5-0.2-0.5-0.5 0-0.3 0.2-0.5 0.5-0.5z"/>
				<path id="Path 23" class="s8" d="m66.5 49c0.3 0 0.5 0.2 0.5 0.5 0 0.3-0.2 0.5-0.5 0.5-0.3 0-0.5-0.2-0.5-0.5 0-0.3 0.2-0.5 0.5-0.5z"/>
				<path id="Path 24" class="s11" d="m82.5 49c0.3 0 0.5 0.2 0.5 0.5 0 0.3-0.2 0.5-0.5 0.5-0.3 0-0.5-0.2-0.5-0.5 0-0.3 0.2-0.5 0.5-0.5z"/>
				<path id="Path 25" class="s9" d="m66.5 50c0.3 0 0.5 0.2 0.5 0.5 0 0.3-0.2 0.5-0.5 0.5-0.3 0-0.5-0.2-0.5-0.5 0-0.3 0.2-0.5 0.5-0.5z"/>
				<path id="Path 26" class="s9" d="m82.5 50c0.3 0 0.5 0.2 0.5 0.5 0 0.3-0.2 0.5-0.5 0.5-0.3 0-0.5-0.2-0.5-0.5 0-0.3 0.2-0.5 0.5-0.5z"/>
				<path id="Path 27" class="s9" d="m66.5 52c0.3 0 0.5 0.2 0.5 0.5 0 0.3-0.2 0.5-0.5 0.5-0.3 0-0.5-0.2-0.5-0.5 0-0.3 0.2-0.5 0.5-0.5z"/>
				<path id="Path 28" class="s9" d="m82.5 52c0.3 0 0.5 0.2 0.5 0.5 0 0.3-0.2 0.5-0.5 0.5-0.3 0-0.5-0.2-0.5-0.5 0-0.3 0.2-0.5 0.5-0.5z"/>
				<path id="Path 29" class="s8" d="m66.5 53c0.3 0 0.5 0.2 0.5 0.5 0 0.3-0.2 0.5-0.5 0.5-0.3 0-0.5-0.2-0.5-0.5 0-0.3 0.2-0.5 0.5-0.5z"/>
				<path id="Path 30" class="s11" d="m82.5 53c0.3 0 0.5 0.2 0.5 0.5 0 0.3-0.2 0.5-0.5 0.5-0.3 0-0.5-0.2-0.5-0.5 0-0.3 0.2-0.5 0.5-0.5z"/>
				<path id="Path 31" class="s7" d="m66.5 54c0.3 0 0.5 0.2 0.5 0.5 0 0.3-0.2 0.5-0.5 0.5-0.3 0-0.5-0.2-0.5-0.5 0-0.3 0.2-0.5 0.5-0.5z"/>
				<path id="Path 32" class="s7" d="m82.5 54c0.3 0 0.5 0.2 0.5 0.5 0 0.3-0.2 0.5-0.5 0.5-0.3 0-0.5-0.2-0.5-0.5 0-0.3 0.2-0.5 0.5-0.5z"/>
				<path id="Path 33" class="s6" d="m66.5 55c0.3 0 0.5 0.2 0.5 0.5 0 0.3-0.2 0.5-0.5 0.5-0.3 0-0.5-0.2-0.5-0.5 0-0.3 0.2-0.5 0.5-0.5z"/>
				<path id="Path 34" class="s9" d="m67.5 55c0.3 0 0.5 0.2 0.5 0.5 0 0.3-0.2 0.5-0.5 0.5-0.3 0-0.5-0.2-0.5-0.5 0-0.3 0.2-0.5 0.5-0.5z"/>
				<path id="Path 35" class="s9" d="m81.5 55c0.3 0 0.5 0.2 0.5 0.5 0 0.3-0.2 0.5-0.5 0.5-0.3 0-0.5-0.2-0.5-0.5 0-0.3 0.2-0.5 0.5-0.5z"/>
				<path id="Path 36" class="s6" d="m82.5 55c0.3 0 0.5 0.2 0.5 0.5 0 0.3-0.2 0.5-0.5 0.5-0.3 0-0.5-0.2-0.5-0.5 0-0.3 0.2-0.5 0.5-0.5z"/>
				<path id="Path 37" class="s12" d="m67.5 56c0.3 0 0.5 0.2 0.5 0.5 0 0.3-0.2 0.5-0.5 0.5-0.3 0-0.5-0.2-0.5-0.5 0-0.3 0.2-0.5 0.5-0.5z"/>
				<path id="Path 38" class="s12" d="m81.5 56c0.3 0 0.5 0.2 0.5 0.5 0 0.3-0.2 0.5-0.5 0.5-0.3 0-0.5-0.2-0.5-0.5 0-0.3 0.2-0.5 0.5-0.5z"/>
				<path id="Path 39" class="s13" d="m68.5 57c0.3 0 0.5 0.2 0.5 0.5 0 0.3-0.2 0.5-0.5 0.5-0.3 0-0.5-0.2-0.5-0.5 0-0.3 0.2-0.5 0.5-0.5z"/>
				<path id="Path 40" class="s7" d="m80.5 57c0.3 0 0.5 0.2 0.5 0.5 0 0.3-0.2 0.5-0.5 0.5-0.3 0-0.5-0.2-0.5-0.5 0-0.3 0.2-0.5 0.5-0.5z"/>
				<path id="Path 41" class="s12" d="m69.5 58c0.3 0 0.5 0.2 0.5 0.5 0 0.3-0.2 0.5-0.5 0.5-0.3 0-0.5-0.2-0.5-0.5 0-0.3 0.2-0.5 0.5-0.5z"/>
				<path id="Path 42" class="s9" d="m70.5 58c0.3 0 0.5 0.2 0.5 0.5 0 0.3-0.2 0.5-0.5 0.5-0.3 0-0.5-0.2-0.5-0.5 0-0.3 0.2-0.5 0.5-0.5z"/>
				<path id="Path 43" class="s9" d="m78.5 58c0.3 0 0.5 0.2 0.5 0.5 0 0.3-0.2 0.5-0.5 0.5-0.3 0-0.5-0.2-0.5-0.5 0-0.3 0.2-0.5 0.5-0.5z"/>
				<path id="Path 44" class="s12" d="m79.5 58c0.3 0 0.5 0.2 0.5 0.5 0 0.3-0.2 0.5-0.5 0.5-0.3 0-0.5-0.2-0.5-0.5 0-0.3 0.2-0.5 0.5-0.5z"/>
				<path id="Path 45" class="s6" d="m70.5 59c0.3 0 0.5 0.2 0.5 0.5 0 0.3-0.2 0.5-0.5 0.5-0.3 0-0.5-0.2-0.5-0.5 0-0.3 0.2-0.5 0.5-0.5z"/>
				<path id="Path 46" class="s7" d="m71.5 59c0.3 0 0.5 0.2 0.5 0.5 0 0.3-0.2 0.5-0.5 0.5-0.3 0-0.5-0.2-0.5-0.5 0-0.3 0.2-0.5 0.5-0.5z"/>
				<path id="Path 47" class="s11" d="m72.5 59c0.3 0 0.5 0.2 0.5 0.5 0 0.3-0.2 0.5-0.5 0.5-0.3 0-0.5-0.2-0.5-0.5 0-0.3 0.2-0.5 0.5-0.5z"/>
				<path id="Path 48" class="s9" d="m73.5 59c0.3 0 0.5 0.2 0.5 0.5 0 0.3-0.2 0.5-0.5 0.5-0.3 0-0.5-0.2-0.5-0.5 0-0.3 0.2-0.5 0.5-0.5z"/>
				<path id="Path 49" class="s9" d="m75.5 59c0.3 0 0.5 0.2 0.5 0.5 0 0.3-0.2 0.5-0.5 0.5-0.3 0-0.5-0.2-0.5-0.5 0-0.3 0.2-0.5 0.5-0.5z"/>
				<path id="Path 50" class="s11" d="m76.5 59c0.3 0 0.5 0.2 0.5 0.5 0 0.3-0.2 0.5-0.5 0.5-0.3 0-0.5-0.2-0.5-0.5 0-0.3 0.2-0.5 0.5-0.5z"/>
				<path id="Path 51" class="s7" d="m77.5 59c0.3 0 0.5 0.2 0.5 0.5 0 0.3-0.2 0.5-0.5 0.5-0.3 0-0.5-0.2-0.5-0.5 0-0.3 0.2-0.5 0.5-0.5z"/>
				<path id="Path 52" class="s6" d="m78.5 59c0.3 0 0.5 0.2 0.5 0.5 0 0.3-0.2 0.5-0.5 0.5-0.3 0-0.5-0.2-0.5-0.5 0-0.3 0.2-0.5 0.5-0.5z"/>
			</g>
			<path id="Path 4" fill-rule="evenodd" class="s2" d="m76.5 39.4c3.1 0.4 4.8 1.4 7.4 4.3 3.2 3.5 3.4 4.2 2.9 8.8-0.5 4-1.2 5.6-3.7 7.8-1.7 1.5-4.6 3-6.3 3.3-2.2 0.4-4.6 0-7.1-1.2-2.2-1.1-4.6-3-5.4-4.4-0.9-1.4-1.5-4.5-1.5-7 0.1-2.5 0.9-5.5 1.8-6.8 1-1.3 3.1-3 4.8-3.8 1.8-0.8 4.8-1.2 7.1-1zm-8.6 12.2c0.1 0.8 1.2 2.5 2.6 3.9 1.4 1.4 3.4 2.5 4.5 2.5 1.1 0 2.9-0.9 4-2 1.1-1.1 2-3.3 2-5q0-3-2.3-4.5c-1.2-0.8-3.2-1.5-4.4-1.5-1.2 0-3.1 1.2-4.3 2.6-1.2 1.5-2.2 3.3-2.1 4z"/>
		</g>
	</g>
</svg>