<svg version="1.2" xmlns="http://www.w3.org/2000/svg" viewBox="0 0 180 130" width="180" height="130"><style>.a{fill:#5e6164}.b{fill:#d5d5d5}.c{fill:#f9f9f9}.d{fill:#63564d}.e{fill:#e4c36b}</style><path class="a" d="m25.5 3.6c1.6 0.4 30.9 0.7 65 0.7 34.1 0 63-0.3 64.3-0.7 1.6-0.4 4 0.6 9 3.9 5.6 3.7 7.1 5.3 9.5 10.2 2.7 5.7 2.7 6.2 2.6 22.8 0 9.4 0 17.2 0.1 17.5 0 0.3 0.2 4 0.3 8.3 0.1 4.4-0.1 8.1-0.5 8.3-0.5 0.2-0.5 1.2-0.2 2.1 0.4 1 0.6 7 0.5 13.3 0 6.3-0.5 14-1.1 17-0.7 3.3-2.4 7.3-4.3 9.9-1.9 2.6-5.4 5.6-8.4 7.3-4.5 2.4-6 2.7-10 2.1-2.7-0.3-30.7-0.6-62.3-0.6-31.6 0-59.6 0.3-62.3 0.7-4 0.5-5.5 0.2-10-2.2-3-1.7-6.5-4.7-8.4-7.3-1.9-2.6-3.6-6.6-4.3-9.9-0.6-3-1.1-10.7-1.1-17-0.1-6.3 0.1-12.3 0.5-13.3 0.3-0.9 0.3-1.9-0.2-2.1-0.4-0.2-0.6-3.9-0.5-8.3 0.1-4.3 0.3-8 0.3-8.3 0.1-0.3 0.1-8.1 0.1-17.5-0.2-16.7-0.1-17.1 2.6-22.7 2.3-4.7 4.1-6.6 9.3-10.3 5.3-3.7 7-4.4 9.5-3.9z"/><path class="b" d="m12.1 103l7.4 5.1h141l7.5-5.1v2.8c0 1.6-1.4 4.6-3.5 7.5-1.9 2.6-3.8 4.8-4.3 4.8-0.4 0.1-31.5 0.3-69.2 0.4-37.7 0.1-69.3 0.1-70.3-0.1-0.9-0.2-3.3-2.5-5.2-5.1-2.2-2.9-3.5-5.9-3.5-7.6z"/><path class="c" d="m90 11.1c54.2-0.1 69.2 0.2 69.8 1.2 0.4 0.6 1.6 1.7 2.7 2.3 1.1 0.6 2.9 2.8 3.9 5 1.1 2.1 2.1 6.4 2.2 9.4 0.2 3 0.4 19.9 0.4 37.5 0.1 17.6-0.3 33.1-0.8 34.5-0.5 1.4-2.6 3.6-8.7 7.3h-139l-3.9-2.4c-2.2-1.3-4.3-3.5-4.8-4.9-0.5-1.4-0.9-16.9-0.8-34.5 0-17.6 0.2-34.5 0.4-37.5 0.1-3.1 1.1-7.2 2.3-9.4 1.1-2.1 2.9-4.3 3.9-5 1.1-0.6 2.2-1.6 2.6-2.3 0.6-0.9 17.5-1.2 69.8-1.2z"/><path class="d" d="m66.5 26c0.8 0 2 1 2.6 2.3 0.9 1.9 0.4 3.3-3.4 9.7-2.4 4.1-5.4 9.2-8.7 15h66l-2.1-3.7c-1.2-2.1-4.2-7.2-6.6-11.3-3.8-6.4-4.3-7.8-3.4-9.7 0.6-1.3 1.8-2.3 2.6-2.3 0.8 0 2.6 1.7 3.9 3.8 1.3 2 4.9 8.1 13.6 23.2h5c3.1 0 5.6 0.6 6.5 1.5 0.8 0.8 1.5 1.7 1.5 2 0 0.3-0.7 1.2-1.6 2-0.8 0.8-2.9 1.5-4.5 1.5-2.1 0-2.9 0.5-2.9 1.8 0 0.9-2.1 10-4.5 20.2-2.5 10.2-5 19-5.6 19.5-0.6 0.6-13.7 1-34.9 1-21.2 0-34.3-0.4-34.9-1-0.6-0.5-3.1-9.3-5.6-19.5-2.4-10.2-4.5-19.3-4.5-20.2 0-1.3-0.8-1.8-3-1.8-1.7 0-3.7-0.7-4.5-1.5-0.8-0.8-1.5-1.7-1.5-2 0-0.3 0.7-1.2 1.6-2 0.9-0.9 3.5-1.5 11.4-1.5l5.6-9.7c3.1-5.4 6.7-11.5 8-13.5 1.3-2.1 3.1-3.8 3.9-3.8z"/><path class="e" d="m93.2 59.4c19 0.1 34.9 0.3 35.1 0.6 0.3 0.3-1.4 8.4-3.9 18-2.4 9.6-4.4 17.6-4.4 17.8 0 0.1-13.5 0.2-60 0.2l-0.9-3.7c-0.6-2.1-2.4-9.4-4.1-16.3-1.7-6.9-3.3-13.3-3.5-14.2-0.4-1.5 0.2-1.9 3.2-2.1 2.1-0.2 19.4-0.3 38.5-0.3z"/><path class="d" d="m118.2 62c0.7-0.1 1.9 0.5 2.5 1.2 1 1 0.8 3.8-1.3 13.8-1.7 8.4-3.1 12.9-4.2 13.7-0.9 0.7-2.3 1-3 0.7-0.6-0.2-1.2-1.7-1.2-3.4 0-1.7 0.9-7.2 2-12.3 1.1-5 2.5-10.2 3-11.4 0.5-1.3 1.5-2.3 2.2-2.3zm-17.2 0c1.1 0 2.3 0.8 2.7 1.8 0.4 0.9-0.1 7-1 13.5-0.9 6.4-1.9 12.2-2.2 12.7-0.3 0.5-1.4 1-2.5 1-1.1 0-2.3-0.8-2.7-1.7-0.3-1 0.2-7.2 1.2-13.8 1.1-6.5 2-12.3 2.2-12.7 0.2-0.4 1.3-0.8 2.3-0.8zm-21.7 0.2c1.9 0.3 2.4 1.3 3.4 7.3 0.7 3.8 1.3 10.2 1.5 14 0.3 6.8 0.2 7-2.1 7-1.8 0-2.6-0.7-3.1-2.5-0.4-1.4-1.3-7-2-12.5-0.7-5.5-1-10.8-0.6-11.8 0.4-1.2 1.5-1.7 2.9-1.5zm-17.7-0.2c0.8 0 1.8 1 2.4 2.3 0.5 1.2 1.9 6.4 3 11.5 1.1 5 2 10.5 2 12.2 0 1.7-0.6 3.2-1.3 3.4-0.6 0.3-2 0-2.9-0.7-1.1-0.8-2.5-5.3-4.2-13.7-1.9-9.2-2.3-12.8-1.5-13.7 0.6-0.7 1.7-1.3 2.5-1.3z"/></svg>