<svg version="1.2" xmlns="http://www.w3.org/2000/svg" viewBox="0 0 160 150" width="160" height="150">
	<title>InGame_Bubble</title>
	<style>
		.s0 { fill: #5e6164 } 
		.s1 { fill: #fafafa } 
	</style>
	<g id="obj_말풍선">
		<path id="Path 0" class="s0" d="m31.4 7.4c2.3 0.3 9.5 0.6 16.1 0.6 6.6 0 21.2-0.1 32.5-0.1 11.3 0 26.1 0 33 0 6.9 0 14-0.2 15.8-0.4 1.7-0.3 3.8-0.1 4.4 0.4 0.7 0.6 3.3 1.7 5.8 2.6 2.5 0.9 5.3 2.4 6.3 3.3 1 0.9 2.7 4.5 3.7 8 1.1 3.4 2.3 6.4 2.7 6.6 0.5 0.2 0.7 8 0.5 17.3-0.1 9.2-0.4 27.1-0.7 39.8-0.4 18.6-0.8 23.8-2.2 27-1 2.2-3.1 5.3-4.8 6.8-1.6 1.6-4.2 3.5-5.8 4.3-1.5 0.8-3.7 1.1-5 0.8-1.2-0.3-12.3-0.6-47.2-0.7l-2.5 3.4c-1.4 1.9-3.5 4.3-4.7 5.4-1.1 1.1-2.7 2.5-3.5 3.1-0.7 0.6-3.1 2-5.3 3.1-2.2 1.1-5.5 2.8-7.2 3.7-1.8 0.9-4.1 1.6-5 1.6-1 0.1-2.6-0.7-3.6-1.7-1.3-1.3-1.6-2.5-1.1-4.3 0.3-1.4 1-2.9 1.5-3.5 0.5-0.6 1-3.2 1.4-10.7h-14c-7.7 0-15 0.3-16.2 0.6-1.3 0.3-3.5 0-5-0.8-1.6-0.8-4.2-2.7-5.8-4.3-1.7-1.5-3.9-4.6-4.8-6.8-1.4-3.2-1.8-8.4-2.2-26.5-0.3-12.4-0.6-30.1-0.7-39.5-0.1-9.4 0.1-17.4 0.4-18 0.4-0.6 1.6-3.7 2.8-7 1.1-3.3 2.9-6.8 3.8-7.8 0.9-1 3.8-2.5 6.3-3.3 2.5-0.9 5-2 5.4-2.6 0.5-0.5 2.6-0.7 4.9-0.4z"/>
		<path id="Path 1" class="s1" d="m84 13.6c36.1 0 46.5 0.4 50.4 1.5 2.6 0.8 5.4 2.1 6.1 2.9 0.7 0.8 2.1 4.2 3.2 7.5 1.6 5 1.9 8.7 1.7 23-0.1 9.4-0.4 26.3-0.8 37.8-0.4 14.9-1 21.6-2.1 24-0.8 1.7-2.7 3.8-4.2 4.5-2.1 1-8.2 1.3-23 1.3-11.2-0.1-20.6-0.3-21-0.5-0.5-0.2-1.7 0-2.8 0.4-1.1 0.4-3.3 0.4-5 0-1.7-0.4-3.8-0.4-4.7 0.1-1 0.5-1.8 1.5-1.8 2.2 0.1 0.6-0.9 2.1-2 3.2-1.1 1.1-2.1 2.6-2 3.3 0 0.6-0.3 1.2-0.7 1.2-0.5 0-1.9 1-3.3 2.3-1.4 1.3-3.5 2.9-4.7 3.5-1.3 0.7-2.6 1.2-3 1.2-0.5 0-0.5-2.5 0-5.5 0.5-3.8 0.3-6.4-1.8-11l-19-0.2c-12.9-0.2-19.9-0.7-21.8-1.5-1.5-0.7-3.5-2.8-4.3-4.5-1-2.4-1.6-9.2-2-23.5-0.3-11.2-0.7-28.4-0.8-38.3-0.1-12.6 0.3-19.2 1.2-22 0.8-2.2 2-5.4 2.7-7 1.2-2.4 2.4-3.2 6.7-4.3 2.9-0.7 7.1-1.3 9.3-1.5 2.2-0.1 24.5-0.2 49.5-0.1z"/>
	</g>
</svg>