<svg version="1.2" xmlns="http://www.w3.org/2000/svg" viewBox="0 0 100 100" width="100" height="100">
	<title>Ingred_001</title>
	<style>
		.s0 { fill: #5e6164 } 
		.s1 { opacity: .9;fill: #5e6164 } 
		.s2 { opacity: .1;fill: #5e6164 } 
		.s3 { opacity: .5;fill: #5d6163 } 
		.s4 { opacity: .3;fill: #5e6163 } 
		.s5 { fill: #362914 } 
		.s6 { fill: #40331f } 
		.s7 { fill: #4f4a41 } 
		.s8 { fill: #725831 } 
	</style>
	<g id="item_커피원액">
		<path id="Path 0" class="s0" d="m47 5c0.3 0 1 0.5 1.7 1.2 1 1.1 1.5 1 2.6-0.1 1.2-1.1 2.1-1 5.8 0.7 2.4 1.2 5 3.2 5.7 4.6 0.6 1.4 1.2 4.9 1.2 7.6 0 3.6-0.4 5.1-1.5 5.5-1.1 0.4-1.2 1-0.6 2.3 0.4 0.9 2.6 2.4 4.7 3.3 2.2 0.9 4.7 2.5 5.7 3.5 1.1 1.2 1.8 3.5 1.8 5.9 0.1 2.2 0.4 4.5 0.7 5 0.3 0.5 0.6 9.2 0.7 19.2 0 10.1-0.2 18.3-0.5 18.3-0.3 0-0.6 2.1-0.7 4.7-0.1 2.7-0.5 5-0.9 5.3-0.3 0.3-10.7 0.5-23.1 0.5-12.4 0-22.9-0.2-23.4-0.5-0.6-0.3-1.1-2.6-1.2-5.3-0.1-2.6-0.4-4.7-0.7-4.7-0.3 0-0.5-8.2-0.5-18.3 0.1-10 0.4-18.7 0.7-19.2 0.3-0.5 0.6-2.8 0.7-5 0-2.4 0.7-4.7 1.8-5.9 1-1 3.5-2.6 5.7-3.5 2.1-0.9 4.3-2.4 4.7-3.3 0.6-1.3 0.5-1.9-0.6-2.3-1.1-0.4-1.5-1.9-1.5-5.5 0-2.7 0.6-6.1 1.2-7.6 0.7-1.4 3.1-3.4 5.3-4.4 2.2-1.1 4.2-2 4.5-2z"/>
		<path id="Path 1" class="s1" d="m25.7 40.5c0.2 0.5 0.2 1.7 0 2.5-0.3 0.8-0.5 0.4-0.5-1 0-1.4 0.2-2 0.5-1.5zm49 0c0.2 0.5 0.2 1.7 0 2.5-0.3 0.8-0.5 0.4-0.5-1 0-1.4 0.2-2 0.5-1.5zm-50 26.8c0.5 0.4 0.5 1 0 1.4-0.4 0.5-0.8 0.1-0.8-0.7 0-0.8 0.4-1.2 0.8-0.8zm51 0c0.5 0.5 0.5 1.1 0 1.5-0.4 0.5-0.8 0.1-0.8-0.7 0-0.8 0.4-1.2 0.8-0.8zm-50.4 15c0.2 0.4 0.2 1.3 0.1 2-0.1 0.7-0.3 0.4-0.3-0.7-0.1-1.1 0-1.7 0.2-1.3zm49 0c0.2 0.4 0.2 1.3 0.1 2-0.1 0.7-0.3 0.4-0.3-0.7-0.1-1.1 0-1.7 0.2-1.3zm-39.3 10c1.4 0 1.9 0.1 1.3 0.4-0.7 0.2-1.9 0.2-2.6 0-0.6-0.3-0.1-0.4 1.3-0.4zm8 0.1c2.5 0 3.4 0.2 2 0.4-1.4 0.2-3.4 0.2-4.5 0-1.1-0.2 0-0.4 2.5-0.4zm6.9-0.3c0.8 0 1.1 0.3 0.8 0.7-0.4 0.5-1 0.5-1.5 0-0.4-0.4-0.1-0.7 0.7-0.7zm7.1 0.3c2.5 0 3.4 0.2 2 0.4-1.4 0.2-3.4 0.2-4.5 0-1.1-0.2 0-0.4 2.5-0.4zm8-0.1c1.4 0 1.9 0.1 1.3 0.4-0.7 0.2-1.9 0.2-2.6 0-0.6-0.3-0.1-0.4 1.3-0.4z"/>
		<path id="Path 2" class="s2" d="m35.7 17.3c0.4 0.4 0.4 1 0 1.4-0.4 0.5-0.8 0.1-0.8-0.7 0-0.8 0.4-1.2 0.8-0.8zm29 0c0.5 0.5 0.5 1.1 0 1.5-0.4 0.5-0.8 0.1-0.8-0.7 0-0.8 0.4-1.2 0.8-0.8zm-32.8 12.8c0.8 0 1.1 0.3 0.8 0.7-0.4 0.5-1 0.4-1.5 0-0.4-0.4-0.1-0.7 0.7-0.7zm36 0c0.8 0 1.1 0.3 0.8 0.7-0.4 0.5-1 0.4-1.5 0-0.4-0.4-0.1-0.7 0.7-0.7zm-43.6 20.2c0.2 0.4 0.2 1.3 0.1 2-0.1 0.7-0.3 0.4-0.3-0.7-0.1-1.1 0-1.7 0.2-1.3zm51 0c0.2 0.4 0.2 1.3 0.1 2-0.1 0.7-0.3 0.4-0.3-0.7-0.1-1.1 0-1.7 0.2-1.3zm-50.6 5c0.4 0.5 0.4 1.1 0 1.5-0.4 0.5-0.8 0.1-0.8-0.7 0-0.8 0.4-1.2 0.8-0.8zm51 0c0.5 0.5 0.5 1.1 0 1.5-0.4 0.5-0.8 0.1-0.8-0.7 0-0.8 0.4-1.2 0.8-0.8zm-51 4c0.4 0.5 0.4 1.1 0 1.5-0.4 0.5-0.8 0.1-0.8-0.7 0-0.8 0.4-1.2 0.8-0.8zm51 0c0.5 0.5 0.5 1.1 0 1.5-0.4 0.5-0.8 0.1-0.8-0.7 0-0.8 0.4-1.2 0.8-0.8zm-51 10c0.4 0.5 0.4 1.1 0 1.5-0.4 0.5-0.8 0.1-0.8-0.7 0-0.8 0.4-1.2 0.8-0.8zm51 0c0.5 0.5 0.5 1.1 0 1.5-0.4 0.5-0.8 0.1-0.8-0.7 0-0.8 0.4-1.2 0.8-0.8zm-51 3c0.4 0.5 0.4 1.1 0 1.5-0.4 0.5-0.8 0.1-0.8-0.7 0-0.8 0.4-1.2 0.8-0.8zm51 0c0.5 0.5 0.5 1.1 0 1.5-0.4 0.5-0.8 0.1-0.8-0.7 0-0.8 0.4-1.2 0.8-0.8zm-50 15c0.4 0.5 0.4 1.1 0 1.5-0.4 0.5-0.8 0.1-0.8-0.7 0-0.8 0.4-1.2 0.8-0.8zm49 0c0.5 0.5 0.5 1.1 0 1.5-0.4 0.5-0.8 0.1-0.8-0.7 0-0.8 0.4-1.2 0.8-0.8zm-26.8 5.8c0.8 0 1.1 0.3 0.8 0.7-0.4 0.5-1 0.5-1.5 0-0.4-0.4-0.1-0.7 0.7-0.7zm4 0c0.8 0 1.1 0.3 0.8 0.7-0.4 0.5-1 0.5-1.5 0-0.4-0.4-0.1-0.7 0.7-0.7z"/>
		<path id="Path 3" class="s3" d="m49.9 6c0.8 0 1.1 0.3 0.8 0.8-0.4 0.4-1 0.4-1.4-0.1-0.5-0.4-0.2-0.7 0.6-0.7zm-25.2 47.3c0.4 0.4 0.4 1 0 1.5-0.4 0.4-0.8 0-0.8-0.8 0-0.8 0.4-1.2 0.8-0.7zm51 0c0.5 0.4 0.5 1 0 1.5-0.4 0.4-0.8 0-0.8-0.8 0-0.8 0.4-1.2 0.8-0.7zm-51 9c0.4 0.4 0.4 1 0 1.5-0.4 0.4-0.8 0-0.8-0.8 0-0.8 0.4-1.2 0.8-0.7zm51 0c0.5 0.4 0.5 1 0 1.5-0.4 0.4-0.8 0-0.8-0.8 0-0.8 0.4-1.2 0.8-0.7z"/>
		<path id="Path 4" class="s4" d="m24.7 57.3c0.4 0.4 0.4 1 0 1.5-0.4 0.4-0.8 0-0.8-0.8 0-0.8 0.4-1.2 0.8-0.7zm51 0c0.5 0.4 0.5 1 0 1.5-0.4 0.4-0.8 0-0.8-0.8 0-0.8 0.4-1.2 0.8-0.7zm-51.4 6.9c0.2 0.4 0.2 1.3 0.1 2-0.1 0.7-0.3 0.4-0.3-0.7-0.1-1.1 0-1.7 0.2-1.3zm51 0c0.2 0.4 0.2 1.3 0.1 2-0.1 0.7-0.3 0.4-0.3-0.7-0.1-1.1 0-1.7 0.2-1.3zm-51 14c0.2 0.4 0.2 1.3 0.1 2-0.1 0.7-0.3 0.4-0.3-0.7-0.1-1.1 0-1.7 0.2-1.3zm51 0c0.2 0.4 0.2 1.3 0.1 2-0.1 0.7-0.3 0.4-0.3-0.7-0.1-1.1 0-1.7 0.2-1.3z"/>
		<path id="Path 5" class="s5" d="m50.3 11.2c4 0.2 7.2 0.8 7.2 1.3 0 0.6-2.9 1.1-6.5 1.3-3.6 0.1-7.1 0-7.7-0.3-0.7-0.3-1-1-0.7-1.5 0.3-0.7 3.5-1 7.7-0.8zm-0.1 7.5c4 0.1 7.7 0.2 8.2 0.3 0.6 0 0.5 0.5-0.1 1.1-0.6 0.6-4.2 1.1-8 1.2-3.7 0-7.5-0.3-8.3-0.8-1-0.5-1.2-0.9-0.3-1.4 0.6-0.3 4.4-0.5 8.5-0.4zm-0.3 7.3c6.4 0 6.6 0.1 7.9 3 0.6 1.6 2 3.3 3 3.6 0.9 0.3 3.2 1.2 5 2 1.9 0.8 3.2 2.1 3.2 3.2 0 0.9 0.3 2.1 0.7 2.5 0.5 0.5 0.9 4.8 0.9 9.5 0.1 4.8 0.2 12.1 0.2 16.2 0.1 4.1 0 10.7-0.3 14.5-0.3 3.8-0.7 7.1-0.9 7.3-0.2 0.2-9.1 0.3-19.7 0.2-10.7 0-19.5-0.1-19.7-0.2-0.1-0.2-0.4-3.5-0.7-7.3-0.3-3.8-0.4-10.4-0.3-14.5 0-4.1 0.1-11.4 0.2-16.2 0-4.7 0.5-9 0.9-9.5 0.4-0.4 0.7-1.6 0.7-2.5 0-1.1 1.3-2.4 3.3-3.2 1.7-0.8 4-1.7 5-2 0.9-0.3 2.2-2 2.9-3.6 1.1-2.9 1.3-3 7.7-3z"/>
		<path id="Path 6" class="s6" d="m50 14.2c1.9 0 2.8 0.2 2 0.5-0.8 0.2-2.4 0.2-3.5 0-1.1-0.3-0.4-0.5 1.5-0.5zm-8.1 3.8c0.8 0 1.1 0.3 0.8 0.8-0.4 0.4-1 0.3-1.5-0.1-0.4-0.4-0.1-0.7 0.7-0.7zm16 0c0.8 0 1.1 0.3 0.8 0.8-0.4 0.4-1 0.3-1.5-0.1-0.4-0.4-0.1-0.7 0.7-0.7zm-28.2 65.3c0.4 0.4 0.4 1 0 1.4-0.4 0.5-0.8 0.1-0.8-0.7 0-0.8 0.4-1.2 0.8-0.8zm41 0c0.5 0.5 0.5 1.1 0 1.5-0.4 0.5-0.8 0.1-0.8-0.7 0-0.8 0.4-1.2 0.8-0.8zm-35.7 5c1.4 0 1.9 0.1 1.3 0.4-0.7 0.2-1.9 0.2-2.5 0-0.7-0.3-0.2-0.4 1.2-0.4zm4.9-0.2c0.8 0 1.1 0.3 0.8 0.7-0.4 0.5-1 0.5-1.4 0-0.5-0.4-0.2-0.7 0.6-0.7zm3.5 0.1c1.1-0.1 1.7 0.2 1.5 0.5-0.2 0.3-1.1 0.3-1.9 0.1-1.1-0.4-1-0.6 0.4-0.6zm13 0c1.1-0.1 1.7 0.2 1.5 0.5-0.2 0.3-1.1 0.3-1.9 0.1-1.1-0.4-1-0.6 0.4-0.6zm3.5-0.1c0.8 0 1.1 0.3 0.8 0.7-0.4 0.5-1 0.5-1.4 0-0.5-0.4-0.2-0.7 0.6-0.7zm5.1 0.2c1.4 0 1.9 0.1 1.3 0.4-0.7 0.2-1.9 0.2-2.5 0-0.7-0.3-0.2-0.4 1.2-0.4z"/>
		<path id="Path 7" class="s7" d="m50 10.2c1.4 0 1.9 0.1 1.3 0.4-0.7 0.2-1.9 0.2-2.5 0-0.7-0.3-0.2-0.4 1.2-0.4zm-9.3 8.1c0.4 0.4 0.4 1 0 1.5-0.4 0.4-0.8 0-0.8-0.8 0-0.8 0.4-1.2 0.8-0.7zm4.2-0.3c0.8 0 1.1 0.3 0.8 0.8-0.4 0.4-1 0.3-1.4-0.1-0.5-0.4-0.2-0.7 0.6-0.7zm10 0c0.8 0 1.1 0.3 0.8 0.8-0.4 0.4-1 0.3-1.4-0.1-0.5-0.4-0.2-0.7 0.6-0.7zm4.8 0.3c0.4 0.4 0.4 1 0 1.5-0.4 0.4-0.8 0-0.8-0.8 0-0.8 0.4-1.2 0.8-0.7zm-29 19.9c0.4 0.5 0.4 1.1 0 1.6-0.4 0.4-0.8 0-0.8-0.8 0-0.8 0.4-1.2 0.8-0.7zm39 0c0.5 0.4 0.5 1 0 1.5-0.4 0.4-0.8 0-0.8-0.8 0-0.8 0.4-1.2 0.8-0.7zm-40 11c0.4 0.4 0.4 1 0 1.5-0.4 0.4-0.8 0-0.8-0.8 0-0.8 0.4-1.2 0.8-0.7zm41 0c0.5 0.4 0.5 1 0 1.5-0.4 0.4-0.8 0-0.8-0.8 0-0.8 0.4-1.2 0.8-0.7zm-41.4 2.9c0.2 0.4 0.2 1.3 0.1 2-0.1 0.7-0.3 0.4-0.3-0.7-0.1-1.1 0-1.7 0.2-1.3zm41 0c0.2 0.4 0.2 1.3 0.1 2-0.1 0.7-0.3 0.4-0.3-0.7-0.1-1.1 0-1.7 0.2-1.3zm-40.6 4.1c0.4 0.4 0.4 1 0 1.5-0.4 0.4-0.8 0-0.8-0.8 0-0.8 0.4-1.2 0.8-0.7zm41 0c0.5 0.4 0.5 1 0 1.5-0.4 0.4-0.8 0-0.8-0.8 0-0.8 0.4-1.2 0.8-0.7zm-41.4 20.9c0.2 0.4 0.2 1.3 0.1 2-0.1 0.7-0.3 0.4-0.3-0.7-0.1-1.1 0-1.7 0.2-1.3zm41 0c0.2 0.4 0.2 1.3 0.1 2-0.1 0.7-0.3 0.4-0.3-0.7-0.1-1.1 0-1.7 0.2-1.3zm-40.6 4.1c0.4 0.4 0.4 1 0 1.5-0.4 0.4-0.8 0-0.8-0.8 0-0.8 0.4-1.2 0.8-0.7zm41 0c0.5 0.4 0.5 1 0 1.5-0.4 0.4-0.8 0-0.8-0.8 0-0.8 0.4-1.2 0.8-0.7zm-39.3 6.8c1.1-0.1 1.7 0.2 1.5 0.5-0.2 0.3-1.1 0.3-1.9 0.1-1.1-0.4-1-0.6 0.4-0.6zm6.5-0.1c0.8 0 1.1 0.3 0.8 0.8-0.4 0.4-1 0.4-1.4-0.1-0.5-0.4-0.2-0.7 0.6-0.7zm24 0c0.8 0 1.1 0.3 0.8 0.8-0.4 0.4-1 0.4-1.4-0.1-0.5-0.4-0.2-0.7 0.6-0.7zm6.5 0.1c1.1-0.1 1.7 0.2 1.5 0.5-0.2 0.3-1.1 0.3-1.9 0.1-1.1-0.4-1-0.6 0.4-0.6z"/>
		<path id="Path 8" class="s6" d="m58.7 36c0.7 0 2.7 0.8 4.3 1.8 2.5 1.4 3 2.3 3 5.5 0 2.1-0.5 3.9-1.3 4.1-0.6 0.2-3.5-1.6-6.2-4.1-4.8-4.2-4.9-4.5-3-5.9 1.1-0.7 2.5-1.4 3.2-1.4zm-12.3 27c0.9 0 1.6 0.2 1.6 0.5 0 0.3-0.5 0.7-1 1-0.5 0.3-1.3 0-1.6-0.5-0.3-0.5 0.1-1 1-1zm-1.7 4.3c0.4 0.4 0.4 1 0 1.5-0.4 0.4-0.8 0-0.8-0.8 0-0.8 0.4-1.2 0.8-0.7z"/>
		<path id="Path 9" class="s8" d="m51.1 51c2.3 0 4.1 0.5 4.3 1.3 0.2 0.6-0.1 2-0.5 3-0.7 1.2-0.5 1.7 0.6 1.7 0.8 0 2 0.9 2.5 2 0.7 1.5 0.6 2.7-0.5 4.5-0.8 1.4-2.5 3.1-3.8 3.9-1.2 0.8-3.4 1.7-5 2-1.8 0.4-2.9 0.1-3.5-0.9-0.4-0.9 0-2.3 3.3-5.8l-2 0.5c-1.1 0.3-2.8 0.2-3.8-0.3-0.9-0.5-1.7-1.7-1.8-2.7-0.1-0.9 1.3-3.4 3.1-5.5 2.6-3.1 3.8-3.7 7.1-3.7z"/>
		<path id="Path 10" class="s7" d="m50.9 50c0.8 0 1.1 0.3 0.8 0.8-0.4 0.4-1 0.3-1.4-0.1-0.5-0.4-0.2-0.7 0.6-0.7z"/>
		<path id="Path 11" class="s5" d="m49.9 59.5c0.3 0.3 0 1.1-0.7 1.8q-1.2 1.2-1.4 0.1c-0.1-0.6 0.2-1.4 0.7-1.7 0.5-0.4 1.1-0.5 1.4-0.2z"/>
		<path id="Path 12" class="s6" d="m50.7 58.3c0.4 0.4 0.4 1 0 1.5-0.4 0.4-0.8 0-0.8-0.8 0-0.8 0.4-1.2 0.8-0.7z"/>
	</g>
</svg>