<svg version="1.2" xmlns="http://www.w3.org/2000/svg" viewBox="0 0 100 100" width="100" height="100">
	<title>Ingred_000</title>
	<style>
		.s0 { fill: #5e6164 } 
		.s1 { opacity: .1;fill: #5e6165 } 
		.s2 { opacity: .9;fill: #5e6164 } 
		.s3 { opacity: .9;fill: #5e6265 } 
		.s4 { opacity: .7;fill: #5e6164 } 
		.s5 { opacity: .2;fill: #5e6164 } 
		.s6 { opacity: .4;fill: #5e6164 } 
		.s7 { fill: #cee6fc } 
		.s8 { fill: #c3ddf6 } 
		.s9 { fill: #bbd6ee } 
		.s10 { fill: #61666a } 
		.s11 { opacity: 1;fill: #5c8cbb } 
		.s12 { fill: #b8cee1 } 
		.s13 { fill: #697684 } 
		.s14 { fill: #7d858c } 
		.s15 { fill: #a9b7c4 } 
		.s16 { fill: #e7edef } 
		.s17 { opacity: 1;fill: #94a0aa } 
	</style>
	<g id="item_생수(복사)">
		<path id="Path 0" class="s0" d="m53.5 1.7c2.2 0.2 4.5 0.8 5 1.2 0.5 0.5 1.8 2.5 2.8 4.5 1.2 2.6 1.5 4.8 1.1 7.8-0.4 2.6-0.2 5.3 0.6 6.8 0.7 1.4 2.4 3.8 3.9 5.3 2 2.2 2.7 4 2.8 8 0.1 2.9 0.3 6.8 0.3 8.7 0 1.9-0.2 5.1-0.3 7-0.2 1.9 0.3 5.8 1.1 8.5 1 3.8 1.1 5.1 0.2 5.5-0.9 0.4-0.9 1.4-0.1 4.3 0.6 2 0.8 4.3 0.5 5-0.4 0.6-0.8 4.8-1 9.2-0.3 6.8-0.7 8.4-2.6 10.3-1.3 1.3-4.1 2.8-6.3 3.4-2.2 0.6-7.8 1.1-12.3 1.2-4.6 0.1-8.6-0.2-8.8-0.6-0.2-0.5-1.3-0.8-2.4-0.8-1.1 0-3.4-1.3-5-3-1.9-1.9-2.8-3.7-2.5-4.7 0.3-1 0.1-2-0.4-2.3-0.5-0.3-1.1-3.1-1.3-6.2-0.1-3.1 0-6 0.4-6.5 0.4-0.4 0.4-4.2 0.2-8.3-0.4-5.1-0.2-7.7 0.6-8 0.8-0.4 0.8-2 0.1-6-0.5-3-0.7-5.8-0.5-6.2 0.2-0.5 0.6-3.6 0.9-7 0.5-5 1.2-7.1 3.5-10 1.7-2.1 3-4.1 3-4.5 0-0.5 0.8-1.6 1.8-2.5 1.2-1.3 1.4-2.1 0.6-3-0.6-0.7-1-2.9-0.9-4.8 0.1-1.9 1.3-5 2.6-6.9 1.3-1.9 3.7-4 5.4-4.7 1.6-0.7 4.8-1 7-0.7z"/>
		<path id="Path 1" class="s1" d="m47.4 1.1c1.1-0.1 1.7 0.2 1.5 0.5-0.2 0.3-1.1 0.3-1.9 0.1-1.1-0.4-1-0.6 0.4-0.6zm4.5-0.1c0.8 0 1.1 0.3 0.8 0.7-0.4 0.5-1 0.5-1.4 0-0.5-0.4-0.2-0.7 0.6-0.7zm10.8 7.3c0.4 0.4 0.4 1 0 1.4-0.4 0.5-0.8 0.1-0.8-0.7 0-0.8 0.4-1.2 0.8-0.8zm-24 6c0.4 0.5 0.4 1.1 0 1.5-0.4 0.5-0.8 0.1-0.8-0.7 0-0.8 0.4-1.2 0.8-0.8zm24 1c0.4 0.5 0.4 1.1 0 1.5-0.4 0.5-0.8 0.1-0.8-0.7 0-0.8 0.4-1.2 0.8-0.8zm-33 39c0.4 0.5 0.4 1.1 0 1.5-0.4 0.5-0.8 0.1-0.8-0.7 0-0.8 0.4-1.2 0.8-0.8zm41.6 5c0.2 0.4 0.2 1.3 0.1 2-0.1 0.7-0.3 0.4-0.3-0.7-0.1-1.1 0-1.7 0.2-1.3zm-42.7 5.3c0.3 0.5 0.3 1.9 0.1 3-0.3 1.3-0.5 0.9-0.5-1 0-1.7 0.2-2.5 0.4-2zm43.1 2.8c0.5 0.4 0.5 1 0 1.5-0.4 0.4-0.8 0-0.8-0.8 0-0.8 0.4-1.2 0.8-0.7zm-43 11c0.4 0.4 0.4 1 0 1.5-0.4 0.4-0.8 0-0.8-0.8 0-0.8 0.4-1.2 0.8-0.7zm20.2 20.7c0.8 0 1.1 0.3 0.8 0.8-0.4 0.4-1 0.4-1.4-0.1-0.5-0.4-0.2-0.7 0.6-0.7z"/>
		<path id="Path 2" class="s2" d="m69.3 36.2c0.2 0.4 0.2 1.3 0.1 2-0.1 0.7-0.3 0.4-0.3-0.7-0.1-1.1 0-1.7 0.2-1.3zm0.4 13c0.5 0.5 0.5 1.1 0 1.5-0.4 0.5-0.8 0.1-0.8-0.7 0-0.8 0.4-1.2 0.8-0.8zm-39 5.3c0.2 0.5 0.2 1.7 0 2.5-0.3 0.8-0.5 0.4-0.5-1 0-1.4 0.2-2 0.5-1.5zm39.6 10.7c0.2 0.4 0.2 1.3 0.1 2-0.1 0.7-0.3 0.4-0.3-0.7-0.1-1.1 0-1.7 0.2-1.3zm-39.6 22c0.5 0.5 0.5 1.1 0 1.5-0.4 0.5-0.8 0.1-0.8-0.7 0-0.8 0.4-1.2 0.8-0.8zm13.2 10.8c0.8 0 1.1 0.3 0.8 0.7-0.4 0.5-1 0.5-1.4 0-0.5-0.4-0.2-0.7 0.6-0.7z"/>
		<path id="Path 3" class="s3" d="m69.7 34.3c0.5 0.4 0.5 1 0 1.5-0.4 0.4-0.8 0-0.8-0.8 0-0.8 0.4-1.2 0.8-0.7zm1 9c0.5 0.4 0.5 1 0 1.5-0.4 0.4-0.8 0-0.8-0.8 0-0.8 0.4-1.2 0.8-0.7zm-1 8c0.5 0.4 0.5 1 0 1.5-0.4 0.4-0.8 0-0.8-0.8 0-0.8 0.4-1.2 0.8-0.7zm-40 18c0.4 0.4 0.4 1 0 1.5-0.4 0.4-0.8 0-0.8-0.8 0-0.8 0.4-1.2 0.8-0.7z"/>
		<path id="Path 4" class="s4" d="m30.7 40.3c0.4 0.4 0.4 1 0 1.5-0.4 0.4-0.8 0-0.8-0.8 0-0.8 0.4-1.2 0.8-0.7zm40 36c0.5 0.4 0.5 1 0 1.5-0.4 0.4-0.8 0-0.8-0.8 0-0.8 0.4-1.2 0.8-0.7z"/>
		<path id="Path 5" class="s5" d="m38.7 12.3c0.4 0.4 0.4 1 0 1.4-0.4 0.5-0.8 0.1-0.8-0.7 0-0.8 0.4-1.2 0.8-0.8zm1 7c0.4 0.5 0.4 1.1 0 1.5-0.4 0.5-0.8 0.1-0.8-0.7 0-0.8 0.4-1.2 0.8-0.8zm-9 16.1c0.4 0.4 0.4 1 0 1.4-0.4 0.5-0.8 0.1-0.8-0.7 0-0.8 0.4-1.2 0.8-0.8zm-1.4 8c0.2 0.4 0.2 1.3 0.1 2-0.1 0.7-0.3 0.4-0.3-0.7-0.1-1.1 0-1.7 0.2-1.3zm17.6 54.8c0.8 0 1.1 0.3 0.8 0.8-0.4 0.4-1 0.4-1.5-0.1-0.4-0.4-0.1-0.7 0.7-0.7zm7 0c0.8 0 1.1 0.3 0.8 0.8-0.4 0.4-1 0.4-1.5-0.1-0.4-0.4-0.1-0.7 0.7-0.7z"/>
		<path id="Path 6" class="s6" d="m54.9 1c0.8 0 1.1 0.3 0.8 0.8-0.4 0.4-1 0.4-1.4-0.1-0.5-0.4-0.2-0.7 0.6-0.7zm-25.2 71.3c0.4 0.4 0.4 1 0 1.4-0.4 0.5-0.8 0.1-0.8-0.7 0-0.8 0.4-1.2 0.8-0.8zm31.2 24.8c0.8 0 1.1 0.3 0.8 0.7-0.4 0.5-1 0.5-1.4 0-0.5-0.4-0.2-0.7 0.6-0.7z"/>
		<path id="Path 7" class="s7" d="m49 26.2c1.4 0 1.9 0.1 1.3 0.4-0.7 0.2-1.9 0.2-2.5 0-0.7-0.3-0.2-0.4 1.2-0.4zm13.1 5.2c2 1.7 2.1 2.7 2 14.5 0 6.9 0.1 18.2 0.2 25.1 0.2 6.9 0.2 13.3 0 14.3-0.3 1.6-0.4 1.6-3-0.1-2.2-1.4-4.6-1.7-12.8-1.5-5.5 0.2-10.6 0.7-11.2 1.3-0.9 0.7-1.4 0.6-1.7-0.3-0.2-0.6-0.1-7 0.1-14.2 0.2-7.2 0.4-18 0.6-24.1 0.2-9.6 0.5-11.5 2.2-13.3 1.5-1.5 2.4-1.8 3.7-1.1 1 0.6 3.5 1.2 5.5 1.5 2.1 0.3 5.7 0 8.1-0.7 2.3-0.7 4.2-1.7 4.2-2.3 0-0.6 0.9-0.2 2.1 0.9z"/>
		<path id="Path 8" class="s8" d="m46.9 33c0.8 0 1.1 0.3 0.8 0.8-0.4 0.4-1 0.3-1.4-0.1-0.5-0.4-0.2-0.7 0.6-0.7zm4.6 0.2c1.7 0 2.4 0.2 1.7 0.5-0.8 0.2-2.1 0.2-3 0-1-0.3-0.3-0.5 1.3-0.5zm-3.6 49.8c0.8 0 1.1 0.3 0.8 0.8-0.4 0.4-1 0.4-1.4-0.1-0.5-0.4-0.2-0.7 0.6-0.7zm4 0c0.8 0 1.1 0.3 0.8 0.8-0.4 0.4-1 0.4-1.4-0.1-0.5-0.4-0.2-0.7 0.6-0.7zm-13 1c0.8 0 1.1 0.3 0.8 0.8-0.4 0.4-1 0.4-1.4-0.1-0.5-0.4-0.2-0.7 0.6-0.7z"/>
		<path id="Path 9" class="s9" d="m54.7 26.5c2.3 0 3.6 0.7 4.5 2.2 0.7 1.3 0.9 2.6 0.5 3-0.5 0.5-4.3 0.9-8.5 1.1-4.3 0.1-8.3-0.1-9-0.5-1.2-0.7-1.2-1.2 0-3 0.9-1.6 2.4-2.3 5.3-2.5 2.2-0.2 5.4-0.3 7.2-0.3zm-19 33.8c0.4 0.4 0.4 1 0 1.5-0.4 0.4-0.8 0-0.8-0.8 0-0.8 0.4-1.2 0.8-0.7zm29 3c0.5 0.4 0.5 1 0 1.5-0.4 0.4-0.8 0-0.8-0.8 0-0.8 0.4-1.2 0.8-0.7zm0 12c0.5 0.4 0.5 1 0 1.5-0.4 0.4-0.8 0-0.8-0.8 0-0.8 0.4-1.2 0.8-0.7zm0 5c0.5 0.4 0.5 1 0 1.5-0.4 0.4-0.8 0-0.8-0.8 0-0.8 0.4-1.2 0.8-0.7zm-10.2 3.4c2.7 0.3 5.8 0.9 6.7 1.4 1 0.5 1.8 1.8 1.8 2.9 0 1.1-1 2.4-2.3 2.9-1.2 0.5-5.4 1.1-9.2 1.4-5.5 0.4-7.9 0.1-11.3-1.4-2.3-1.1-4.2-2.6-4.2-3.4 0-0.8 0.6-1.8 1.2-2.2 0.7-0.4 3.8-1 6.8-1.3 3-0.4 7.7-0.5 10.5-0.3z"/>
		<path id="Path 10" class="s10" d="m49.9 10c0.8 0 1.1 0.3 0.8 0.8-0.4 0.4-1 0.4-1.4-0.1-0.5-0.4-0.2-0.7 0.6-0.7zm-2 5c0.8 0 1.1 0.3 0.8 0.7-0.4 0.5-1 0.4-1.4 0-0.5-0.4-0.2-0.7 0.6-0.7zm16.8 20.3c0.5 0.4 0.5 1 0 1.4-0.4 0.5-0.8 0.1-0.8-0.7 0-0.8 0.4-1.2 0.8-0.8zm0 3c0.5 0.5 0.5 1.1 0 1.5-0.4 0.5-0.8 0.1-0.8-0.7 0-0.8 0.4-1.2 0.8-0.8zm-28 14c0.4 0.5 0.4 1.1 0 1.5-0.4 0.5-0.8 0.1-0.8-0.7 0-0.8 0.4-1.2 0.8-0.8zm-2 17.3c0.2 1.1 0.2 2.7 0 3.5-0.3 0.8-0.5-0.1-0.5-2 0-1.9 0.2-2.6 0.5-1.5zm-0.4 11.7c0.2 0.4 0.2 1.3 0.1 2-0.1 0.7-0.3 0.4-0.3-0.7-0.1-1.1 0-1.7 0.2-1.3z"/>
		<path id="Path 11" class="s11" d="m51.8 7.3c0.7 0.1 1.4 0.7 1.5 1.2 0.1 0.6-1 1.1-2.5 1.3-1.6 0.1-2.9-0.2-3-0.7-0.1-0.5 0.5-1.2 1.3-1.4 0.7-0.3 2-0.5 2.7-0.4zm4.9 7.1c0.2 0.3-0.1 1.4-0.6 2.4-0.4 0.9-2 2-3.5 2.5-1.4 0.4-3.7 0.3-5.1-0.3-1.4-0.6-2.5-1.4-2.5-2 0-0.6 2.3-1 5-1 2.8 0 5.3-0.5 5.7-1.1 0.3-0.6 0.8-0.8 1-0.5z"/>
		<path id="Path 12" class="s12" d="m36.7 36.3c0.4 0.4 0.4 1 0 1.5-0.4 0.4-0.8 0-0.8-0.8 0-0.8 0.4-1.2 0.8-0.7zm28 11c0.5 0.4 0.5 1 0 1.5-0.4 0.4-0.8 0-0.8-0.8 0-0.8 0.4-1.2 0.8-0.7zm-29 16c0.4 0.4 0.4 1 0 1.5-0.4 0.4-0.8 0-0.8-0.8 0-0.8 0.4-1.2 0.8-0.7zm15.7 28.8c1.1-0.1 1.7 0.2 1.5 0.5-0.2 0.3-1.1 0.3-1.9 0.1-1.1-0.4-1-0.6 0.4-0.6z"/>
		<path id="Path 13" class="s13" d="m45.4 14.6c0.8 0.4 1.5 0.8 1.6 1 0 0.2-0.7 0.6-1.5 0.9-0.9 0.3-1.5-0.1-1.5-1-0.1-0.9 0.5-1.2 1.4-0.9zm-9.7 29.6c0.4 0.5 0.4 1.1 0 1.5-0.4 0.5-0.8 0.1-0.8-0.7 0-0.8 0.4-1.2 0.8-0.8zm0 4c0.4 0.5 0.4 1.1 0 1.5-0.4 0.5-0.8 0.1-0.8-0.7 0-0.8 0.4-1.2 0.8-0.8zm30 21.3c0.2 0.5 0.2 1.7 0 2.5-0.3 0.8-0.5 0.4-0.5-1 0-1.4 0.2-2 0.5-1.5z"/>
		<path id="Path 14" class="s14" d="m54.9 24c0.8 0 1.1 0.3 0.8 0.8-0.4 0.4-1 0.3-1.4-0.1-0.5-0.4-0.2-0.7 0.6-0.7zm-19.2 33.3c0.4 0.4 0.4 1 0 1.5-0.4 0.4-0.8 0-0.8-0.8 0-0.8 0.4-1.2 0.8-0.7z"/>
		<path id="Path 15" class="s15" d="m51.9 25c0.8 0 1.1 0.3 0.8 0.8-0.4 0.4-1 0.3-1.4-0.1-0.5-0.4-0.2-0.7 0.6-0.7zm12.8 18.3c0.5 0.4 0.5 1 0 1.4-0.4 0.5-0.8 0.1-0.8-0.7 0-0.8 0.4-1.2 0.8-0.8zm-29 22.1c0.4 0.4 0.4 1 0 1.4-0.4 0.5-0.8 0.1-0.8-0.7 0-0.8 0.4-1.2 0.8-0.8zm0 10c0.4 0.5 0.4 1.1 0 1.5-0.4 0.5-0.8 0.1-0.8-0.7 0-0.8 0.4-1.2 0.8-0.8zm28 12c0.5 0.5 0.5 1.1 0 1.5-0.4 0.5-0.8 0.1-0.8-0.7 0-0.8 0.4-1.2 0.8-0.8z"/>
		<path id="Path 16" class="s16" d="m45.7 24.4c0.7 0.3 2.3 0.6 3.5 0.7 2.2 0.1 2.2 0.1-0.2 0.9-1.4 0.4-3.1 0.8-3.8 0.9-0.6 0.1-1.1-0.6-1-1.5 0-1 0.7-1.4 1.5-1zm9.3 0.6c1.9 0 2.1 0.3 1.2 1.3-1 0.9-1.5 0.9-2.5-0.1-1-1-0.7-1.2 1.2-1.2z"/>
		<path id="Path 17" class="s17" d="m65.7 66.3c0.5 0.4 0.5 1 0 1.5-0.4 0.4-0.8 0-0.8-0.8 0-0.8 0.4-1.2 0.8-0.7z"/>
		<path id="Path 18" class="s8" d="m54.4 37.3c0.6 0.2 1.4 1.9 1.8 3.8 0.4 1.9 0.6 4.8 0.5 6.4-0.2 2.2-0.7 3-2.2 3-1.8 0-2-0.7-2.1-6-0.1-3.3 0.1-6.4 0.4-6.8 0.2-0.4 1-0.6 1.6-0.4zm-10.4 0.7c1.8 0 2 0.7 2 7 0 6.3-0.2 7-2 7-1.8 0-2-0.7-2-7 0-6.3 0.2-7 2-7zm5.9 17.5c7 0 8.1 0.2 8.1 1.8 0 0.9-0.8 1.9-1.7 2.1-1 0.3-3.1 0.7-4.8 1.1-1.6 0.4-4.7 0.2-6.7-0.4-2.1-0.6-3.9-1.7-4-2.4-0.1-0.8 0.1-1.6 0.5-1.8 0.3-0.2 4.2-0.4 8.6-0.4zm9.5 7.8c0.6 0.2 1.2 3.6 1.4 8 0.1 5.4-0.2 7.9-1 8.3-0.7 0.3-1.6 0.2-2.1-0.2-0.4-0.5-0.9-3.8-1.1-7.4-0.2-3.6 0.1-7.1 0.7-7.8 0.6-0.7 1.5-1.1 2.1-0.9zm-19.6 0.9c1.4 0.3 1.7 1.7 2 8.6 0.2 7.3 0 8.2-1.5 7.9-1.5-0.2-1.8-1.5-2-8.5-0.2-7.4 0-8.3 1.5-8zm9 0c1.3 0.2 1.8 1.8 2.3 6.8 0.4 3.6 0.5 7.1 0.3 7.8-0.2 0.6-1.1 1.2-1.9 1.2-0.8 0-1.7-0.6-1.8-1.2-0.2-0.7-0.5-4.4-0.5-8.1-0.1-6 0.1-6.8 1.6-6.5z"/>
	</g>
</svg>