<svg version="1.2" xmlns="http://www.w3.org/2000/svg" viewBox="0 0 200 200" width="200" height="200">
	<title>vectorpsd</title>
	<style>
		.s0 { fill: #8b8d8f } 
		.s1 { fill: #f9f9f9 } 
		.s2 { fill: #5e6164 } 
		.s3 { fill: #c8c8c8 } 
		.s4 { fill: #b9a588 } 
		.s5 { fill: #e9c8a1 } 
		.s6 { opacity: 1;fill: #86c1fc } 
		.s7 { opacity: 1;fill: #647641 } 
		.s8 { opacity: 1;fill: #f2733d } 
		.s9 { opacity: .1;fill: #f3723d } 
		.s10 { opacity: .1;fill: #f1723d } 
		.s11 { opacity: .9;fill: #f2723c } 
		.s12 { opacity: .6;fill: #f3723c } 
		.s13 { opacity: .3;fill: #f2723c } 
		.s14 { opacity: .2;fill: #f2723c } 
		.s15 { opacity: .7;fill: #f3723d } 
		.s16 { opacity: .5;fill: #f3723d } 
		.s17 { opacity: .2;fill: #f3a58e } 
		.s18 { opacity: .1;fill: #f10000 } 
		.s19 { opacity: .4;fill: #f3aa82 } 
		.s20 { opacity: 1;fill: #f3f5f5 } 
		.s21 { opacity: 1;fill: #f29275 } 
		.s22 { opacity: 1;fill: #f3774d } 
		.s23 { opacity: 1;fill: #f3cebc } 
		.s24 { opacity: 1;fill: #f2a784 } 
		.s25 { opacity: 1;fill: #f3efce } 
		.s26 { opacity: 1;fill: #f3b6a0 } 
	</style>
	<g id="icon_프로필">
		<g id="icon_frame(프로필)">
			<path id="Path 0" class="s0" d="m102.5 13.5c3.8 0.3 10.4 1.3 14.5 2.4 4.1 1 9.8 2.9 12.5 4.2 2.8 1.3 7.3 4.1 10 6.2 2.8 2.2 6.5 5.2 8.3 6.8 1.7 1.6 3.2 3.4 3.2 3.9 0 0.5 0.4 1 1 1 0.6 0 2.7 2.8 4.8 6.3 2.1 3.4 5.1 10 6.7 14.7 1.5 4.7 3 10.1 3.2 12 0.2 1.9 0.4 6.4 0.4 10 0 3.6-0.2 7.8-0.5 9.5-0.3 1.7-1.1 5-1.7 7.5-0.6 2.5-2.5 7.5-4.3 11.3-1.7 3.7-3.4 6.7-3.9 6.7-0.4 0-0.7 0.8-0.7 1.8-0.1 0.9-1.5 3.2-3.3 4.9-1.8 1.8-5.4 5.4-8.1 8-2.6 2.7-7.1 6.1-10 7.6-2.8 1.6-7.4 3.7-10.1 4.8-2.8 1-7.9 2.6-11.5 3.5-4.8 1.3-8.7 1.5-15 1-4.7-0.3-11-1.2-14-2-3-0.8-7.1-2-9-2.8-1.9-0.7-6-2.7-9-4.4-3-1.8-8.4-6.1-12-9.5-3.6-3.5-8.1-8.7-10-11.4-1.8-2.7-4.6-8.2-6.2-12-1.5-3.8-3.1-8.6-3.4-10.5-0.4-1.9-0.9-6.2-1.3-9.5-0.3-3.3-0.2-8.3 0.3-11 0.5-2.7 1.7-8.6 2.8-13 1.1-4.4 3.2-9.9 4.6-12.3 1.5-2.4 3.3-5.4 3.9-6.8 0.7-1.3 3.7-4.8 6.6-7.6 2.9-2.9 6.3-6.2 7.7-7.3 1.4-1.1 3.2-2.4 4.1-3 0.9-0.5 4.3-2.4 7.5-4.1 3.2-1.7 7.2-3.5 8.9-3.9 1.7-0.5 3.7-1 4.5-1.3 0.8-0.2 3.7-0.8 6.5-1.2 2.7-0.5 8.2-0.7 12-0.5z"/>
			<path id="Path 1" class="s1" d="m105.5 19.8c2.2 0.2 5.9 0.7 8.3 1.3 2.3 0.5 8.6 3 13.9 5.6 7.1 3.5 11.3 6.4 15.5 10.5 3.2 3.2 7.3 8.4 9.2 11.5 1.9 3.2 4.4 8.7 5.5 12.3 1.2 3.6 2.4 10.5 2.7 15.5 0.5 6.4 0.1 11.5-1 17.5-1.1 5.4-3 11-5.4 15.5-2.1 4-6.4 9.7-10.2 13.5-3.6 3.6-9 7.9-12 9.7-3 1.7-8.9 4.2-13 5.6-4.1 1.4-10.2 2.8-13.5 3.1-3.3 0.2-9.4 0-13.5-0.6-4.1-0.5-10.9-2.3-15-4-4.1-1.6-8.8-3.9-10.5-5.1-1.7-1.2-4.3-3.3-5.9-4.7-1.5-1.4-3.2-3-3.7-3.5-0.5-0.5-2.5-2.8-4.4-5-1.9-2.2-5.3-7.7-7.5-12.3-2.8-5.8-4.3-10.3-4.9-15.4-0.5-4-0.7-10.5-0.5-14.3 0.2-3.8 0.5-7.7 0.7-8.5 0.2-0.8 1.1-4 2.2-7 1-3 3.6-8.4 5.7-12 2.1-3.6 5.2-7.8 6.8-9.5 1.6-1.6 3.5-3.5 4.2-4 0.7-0.6 3.1-2.4 5.3-4.1 2.2-1.8 6.3-4.2 9-5.4 2.8-1.2 6.6-2.9 8.5-3.8 1.9-0.9 7.1-1.9 11.5-2.2 4.4-0.3 9.8-0.4 12-0.2z"/>
		</g>
		<g id="icon_frame(프로필) copy">
			<path id="Path 0" class="s0" d="m102.5 13.5c3.8 0.3 10.4 1.3 14.5 2.4 4.1 1 9.8 2.9 12.5 4.2 2.8 1.3 7.3 4.1 10 6.2 2.8 2.2 6.5 5.2 8.3 6.8 1.7 1.6 3.2 3.4 3.2 3.9 0 0.5 0.4 1 1 1 0.6 0 2.7 2.8 4.8 6.3 2.1 3.4 5.1 10 6.7 14.7 1.5 4.7 3 10.1 3.2 12 0.2 1.9 0.4 6.4 0.4 10 0 3.6-0.2 7.8-0.5 9.5-0.3 1.7-1.1 5-1.7 7.5-0.6 2.5-2.5 7.5-4.3 11.3-1.7 3.7-3.4 6.7-3.9 6.7-0.4 0-0.7 0.8-0.7 1.8-0.1 0.9-1.5 3.2-3.3 4.9-1.8 1.8-5.4 5.4-8.1 8-2.6 2.7-7.1 6.1-10 7.6-2.8 1.6-7.4 3.7-10.1 4.8-2.8 1-7.9 2.6-11.5 3.5-4.8 1.3-8.7 1.5-15 1-4.7-0.3-11-1.2-14-2-3-0.8-7.1-2-9-2.8-1.9-0.7-6-2.7-9-4.4-3-1.8-8.4-6.1-12-9.5-3.6-3.5-8.1-8.7-10-11.4-1.8-2.7-4.6-8.2-6.2-12-1.5-3.8-3.1-8.6-3.4-10.5-0.4-1.9-0.9-6.2-1.3-9.5-0.3-3.3-0.2-8.3 0.3-11 0.5-2.7 1.7-8.6 2.8-13 1.1-4.4 3.2-9.9 4.6-12.3 1.5-2.4 3.3-5.4 3.9-6.8 0.7-1.3 3.7-4.8 6.6-7.6 2.9-2.9 6.3-6.2 7.7-7.3 1.4-1.1 3.2-2.4 4.1-3 0.9-0.5 4.3-2.4 7.5-4.1 3.2-1.7 7.2-3.5 8.9-3.9 1.7-0.5 3.7-1 4.5-1.3 0.8-0.2 3.7-0.8 6.5-1.2 2.7-0.5 8.2-0.7 12-0.5z"/>
			<path id="Path 1" class="s1" d="m105.5 19.8c2.2 0.2 5.9 0.7 8.3 1.3 2.3 0.5 8.6 3 13.9 5.6 7.1 3.5 11.3 6.4 15.5 10.5 3.2 3.2 7.3 8.4 9.2 11.5 1.9 3.2 4.4 8.7 5.5 12.3 1.2 3.6 2.4 10.5 2.7 15.5 0.5 6.4 0.1 11.5-1 17.5-1.1 5.4-3 11-5.4 15.5-2.1 4-6.4 9.7-10.2 13.5-3.6 3.6-9 7.9-12 9.7-3 1.7-8.9 4.2-13 5.6-4.1 1.4-10.2 2.8-13.5 3.1-3.3 0.2-9.4 0-13.5-0.6-4.1-0.5-10.9-2.3-15-4-4.1-1.6-8.8-3.9-10.5-5.1-1.7-1.2-4.3-3.3-5.9-4.7-1.5-1.4-3.2-3-3.7-3.5-0.5-0.5-2.5-2.8-4.4-5-1.9-2.2-5.3-7.7-7.5-12.3-2.8-5.8-4.3-10.3-4.9-15.4-0.5-4-0.7-10.5-0.5-14.3 0.2-3.8 0.5-7.7 0.7-8.5 0.2-0.8 1.1-4 2.2-7 1-3 3.6-8.4 5.7-12 2.1-3.6 5.2-7.8 6.8-9.5 1.6-1.6 3.5-3.5 4.2-4 0.7-0.6 3.1-2.4 5.3-4.1 2.2-1.8 6.3-4.2 9-5.4 2.8-1.2 6.6-2.9 8.5-3.8 1.9-0.9 7.1-1.9 11.5-2.2 4.4-0.3 9.8-0.4 12-0.2z"/>
		</g>
		<g id="chr_프로필고양이">
			<g id="레이어 1">
				<path id="Path 0" fill-rule="evenodd" class="s0" d="m102.5 13.5c3.8 0.3 10.4 1.3 14.5 2.4 4.1 1 9.8 2.9 12.5 4.2 2.8 1.3 7.3 4.1 10 6.2 2.8 2.2 6.5 5.2 8.3 6.8 1.7 1.6 3.2 3.4 3.2 3.9 0 0.5 0.4 1 1 1 0.6 0 2.7 2.8 4.8 6.3 2.1 3.4 5.1 10 6.7 14.7 1.5 4.7 3 10.1 3.2 12 0.2 1.9 0.4 6.4 0.4 10 0 3.6-0.2 7.8-0.5 9.5-0.3 1.7-1.1 5-1.7 7.5-0.6 2.5-2.5 7.5-4.3 11.3-1.7 3.7-3.4 6.7-3.9 6.7-0.4 0-0.7 0.8-0.7 1.8-0.1 0.9-1.5 3.2-3.3 4.9-1.8 1.8-5.4 5.4-8.1 8-2.6 2.7-7.1 6.1-10 7.6-2.8 1.6-7.4 3.7-10.1 4.8-2.8 1-7.5 2.5-10.5 3.3-3.7 1-8.6 1.4-15 1.1-5.2-0.2-12-1.1-15-1.9-3-0.8-7.1-2-9-2.8-1.9-0.7-6-2.7-9-4.4-3-1.8-8.4-6.1-12-9.5-3.6-3.5-8.1-8.7-10-11.4-1.8-2.7-4.6-8.2-6.2-12-1.5-3.8-3.1-8.6-3.4-10.5-0.4-1.9-0.9-6.2-1.3-9.5-0.3-3.3-0.2-8.3 0.3-11 0.5-2.7 1.7-8.6 2.8-13 1.1-4.4 3.2-9.9 4.6-12.3 1.5-2.4 3.3-5.4 3.9-6.8 0.7-1.3 3.7-4.8 6.6-7.6 2.9-2.9 6.3-6.2 7.7-7.3 1.4-1.1 3.2-2.4 4.1-3 0.9-0.5 4.3-2.4 7.5-4.1 3.2-1.7 7.2-3.5 8.9-3.9 1.7-0.5 3.7-1 4.5-1.3 0.8-0.2 3.7-0.8 6.5-1.2 2.7-0.5 8.2-0.7 12-0.5zm-28 12.9c-5 2.5-10.3 5.8-12 7.5-1.6 1.7-3.3 3.1-3.8 3.1-0.4 0-1.9 1.4-3.5 3.2-1.5 1.7-4.4 5.9-6.4 9.2-2.1 3.4-4.6 8.8-5.7 12.1-1 3.3-2.2 8.3-2.6 11-0.5 2.8-0.7 6.6-0.6 8.5 0.1 1.9 0.4 5.3 0.6 7.5 0.2 2.2 1.6 7.6 3.1 12 1.5 4.4 3.5 9 4.5 10.3 1.1 1.2 1.7 2.7 1.4 3.2-0.3 0.5 0 1 0.5 1 0.5 0 2.4 1.8 4 4l3 4c3-6.6 4.8-9.4 5.8-10.5 1.9-2 1.9-2-0.2-3.8-1.2-1-2.4-1.7-2.9-1.7-0.4 0-0.7-0.6-0.7-1.3 0.1-0.6-0.9-2.1-2-3.2-1.1-1.1-2.8-4.3-3.7-7-1-3.1-1.4-6.7-1-9.5 0.2-2.5 1.5-6.5 2.7-9 1.2-2.5 3.3-5.6 4.5-7 1.4-1.5 2.8-5 3.5-8.5 0.7-3.3 1.7-6.9 2.3-8 0.6-1.1 1.8-2.7 2.6-3.6 0.9-0.9 2.6-2.1 3.8-2.8 1.3-0.6 2.8-1.1 3.3-1.1 0.5 0 2.7 1.5 4.8 3.4 3.6 3.3 4 3.4 11.7 3.4 4.4 0.1 9.9 0.4 12.2 0.9 3.8 0.7 4.5 0.5 6-1.5 1-1.2 3.5-3.1 5.6-4.2 2-1.1 4.7-2 6-2 1.2-0.1 2.9 0.7 3.8 1.7 0.9 1 2.5 3.6 3.6 5.8 1.1 2.2 2.3 6 2.7 8.5 0.4 2.6 1.5 5.2 2.6 6.3 1.9 1.6 2.1 1.6 5-0.8 1.9-1.6 4.2-2.5 6.5-2.5 2.1 0 3.5 0.5 3.6 1.3 0.1 0.6 0 2.3-0.1 3.7-0.1 1.4-0.6 3-1.1 3.5-0.5 0.6 0.3 1.7 2.1 2.8 2.4 1.4 3 2.4 3 5.2 0 2.8-0.5 3.6-2.2 4.1-1.3 0.3-3.5 0-5-0.5-1.6-0.6-3.2-1.1-3.8-1.1-0.6 0-1 1.7-1 3.8 0 2-0.5 5.3-1.1 7.2-0.7 1.9-3.4 6.1-6.1 9.3l-4.8 5.7c3.9 3.9 5 5.2 5 5.5 0 0.3 0.9 1.7 2 3.3 1.2 1.5 2.1 3.5 2 4.5 0 0.9 0.4 1.9 1 2.2 0.6 0.3 2.6-1 4.5-2.8 2-1.7 5.6-6.5 8-10.5 3.1-4.9 5.1-9.8 6.5-15.5 1.1-4.5 2.1-10.7 2.2-13.7 0.1-3-0.2-7.8-0.6-10.5-0.4-2.8-1.7-8.2-2.8-12-1.2-3.9-2.7-7.7-3.3-8.5-0.7-0.8-1.9-2.9-2.8-4.5-0.8-1.6-4.5-6-8.1-9.8-3.6-3.7-7.2-6.7-7.9-6.7-0.6 0-1.9-0.6-2.7-1.4-0.8-0.7-5.5-3-10.5-5.1-8.5-3.7-9.6-3.9-19.5-4-5.8-0.1-12.3 0.3-14.5 0.7-2.2 0.4-8 2.8-13 5.2z"/>
				<path id="Path 1" class="s2" d="m75 46.1c0.8 0 3.1 1.7 8.8 7.4l7.8-0.3c4.4-0.2 9.8 0.1 12.1 0.7 3.4 0.9 4.5 0.8 5-0.2 0.5-0.8 2.8-2.8 5.3-4.6 2.5-1.7 5.6-3.2 7-3.2 1.4 0 3.2 0.8 4.1 1.8 0.9 1 2.5 3.6 3.6 5.8 1.1 2.2 2.3 6 2.7 8.5 0.4 2.6 1.5 5.2 2.6 6.2 1.9 1.7 2.1 1.7 5-0.7 1.9-1.6 4.2-2.5 6.5-2.5 2.1 0 3.5 0.5 3.6 1.2 0.1 0.7 0 2.4-0.1 3.8-0.1 1.4-0.6 3-1.1 3.5-0.5 0.6 0.3 1.7 2.1 2.7 2.4 1.5 3 2.5 3 5.3 0 2.8-0.5 3.6-2.3 4.1-1.2 0.3-3.4 0-5-0.5-1.5-0.6-3.1-1.1-3.7-1.1-0.6 0-1 1.7-1 3.7 0 2.1-0.5 5.4-1.1 7.3-0.7 1.9-3.4 6.1-10.9 15l2.5 2.5c1.4 1.4 2.5 2.7 2.5 3 0 0.3 0.9 1.7 1.9 3.2 1.1 1.6 2.2 4.1 2.5 5.8 0.3 1.7 0.2 3.7-0.3 4.5-0.8 1.3-1.1 1.3-2.6 0-0.8-0.8-1.8-2.6-2.1-4-0.2-1.4-1.4-3.6-4.5-7.5l0.6 4c0.3 2.2 0.8 5.8 1 8 0.3 2.6 0.1 4.3-0.8 4.7-0.6 0.4-1.6 0.8-2.2 0.8-0.5 0-1.3-3.8-1.7-8.5-0.5-4.7-1.4-9.5-2-10.8-0.7-1.2-1.3-2.3-1.3-2.4 0-0.2-1.3 0.2-3 0.7-2.8 1-3 1.4-3 5.8 0 4.5-0.2 4.8-4 6.7-3.3 1.6-6 2-15 2-9.6 0-11.5-0.3-14.8-2.3-3.1-1.9-3.7-2.7-3.7-5.7 0-2.7-0.5-3.7-2.2-4.4-1.3-0.5-2.6-0.7-3-0.5-0.5 0.2-0.8 2.5-0.8 5.1-0.1 3.9 0.2 4.6 1.2 3.5 1.1-1 1.8-0.9 3.8 0.7 2.2 1.7 2.3 2 1 3.5-0.8 0.9-2.3 1.7-3.2 1.6-1 0-2.2-0.8-2.8-1.8-0.7-1.3-0.9-0.6-0.9 2.8 0 4.5 0 4.5-2.3 2.9-2-1.4-2.3-2.3-2-7 0.2-3 0.7-7.2 1.2-9.4 0.5-2.2 0.6-4.2 0.3-4.5-0.3-0.3-1.8 1.1-3.4 3-1.6 1.9-3.5 5-4.2 6.8-0.7 1.8-1.4 3.2-1.7 3.3-0.3 0-1.1-0.7-1.7-1.6-1.1-1.2-0.9-2.3 0.7-5.7 1-2.4 2.8-5.2 3.8-6.3 1.9-2 1.9-2-0.2-3.8-1.2-1-2.4-1.7-2.8-1.7-0.5 0-0.8-0.6-0.8-1.2 0.1-0.7-0.9-2.2-2-3.3-1.1-1.1-2.8-4.3-3.6-7-1.1-3.3-1.4-6.6-1-9.8 0.3-2.6 1.5-6.6 2.7-8.9 1.2-2.4 3.2-5.4 4.4-6.8 1.4-1.5 2.8-5 3.5-8.5 0.7-3.3 1.7-6.9 2.3-8 0.6-1.1 1.8-2.7 2.6-3.6 0.9-0.9 2.5-2.1 3.6-2.7 1.1-0.6 2.7-1.1 3.5-1.1z"/>
				<path id="Path 2" class="s3" d="m68.9 113c0.5 0 0.7 0.8 0.4 1.8-0.2 0.9-0.7 4.8-1.1 8.6-0.4 3.7-1 7-1.5 7.2-0.4 0.2-1.6 0-2.7-0.6-1.1-0.6-2.3-2-2.6-3.3-0.3-1.2-0.1-3.3 0.6-4.7 0.7-1.4 2.3-4 3.7-5.8 1.3-1.7 2.8-3.2 3.2-3.2zm60 4.5l2 2.5c1.1 1.4 2.3 3.7 2.6 5.3 0.3 1.5 0.9 2.9 1.5 3.2 0.6 0.3 1 0.8 1 1.3 0 0.4-1.1 1.3-2.5 2-1.4 0.6-2.5 0.9-2.6 0.5 0-0.5-0.2-1.7-0.3-2.8-0.2-1.1-0.6-4.3-1-7z"/>
				<path id="Path 3" class="s4" d="m122.4 113.1c0.5-0.1 1.3 1.1 1.8 2.7 0.4 1.5 1.1 6.6 2.3 20l-8 2.8c-6.5 2.2-9.8 2.7-17.5 2.7-5.2-0.1-11.8-0.6-14.5-1.2-2.8-0.7-7.2-2.2-9.8-3.4-4.6-2.1-4.8-2.4-4.7-6.2 0-3.1 0.3-3.6 1-2.2 0.6 0.9 1.8 1.7 2.7 1.7 1 0.1 2.5-0.7 3.3-1.6 1.3-1.5 1.2-1.8-1-3.5-2-1.6-2.7-1.7-3.8-0.7-1 1.1-1.3 0.4-1.2-3.4 0-2.8 0.5-5 1.2-5.2 0.6-0.2 2 0 3 0.5 1.2 0.6 1.8 2 1.8 4.4 0 3 0.6 3.8 3.7 5.8 3.3 1.9 5.2 2.2 14.8 2.2 9 0 11.7-0.4 15-2 3.9-2 4-2.1 3.6-6.7-0.4-4.5-0.3-4.8 2.5-5.7 1.6-0.5 3.3-1 3.8-1z"/>
				<path id="Path 4" class="s2" d="m121 123.1c0.3-0.1 1.1 0.4 1.8 1.1 0.7 0.7 1.2 2.1 1.2 3.1 0 0.9-0.5 1.9-1 2.2-0.5 0.3-1.9 0.3-3 0-1.2-0.3-2.1-1.4-2.2-2.9-0.1-1.4 0.4-2.7 1.2-2.9 0.8-0.3 1.7-0.6 2-0.6z"/>
				<path id="Path 5" class="s3" d="m104 66.7c4.1 0.6 8.8 1.7 10.5 2.3 1.7 0.6 5.5 2.3 8.5 3.7 3 1.5 5.6 3 5.8 3.5 0.1 0.4 0.6 0.8 1.2 0.8 0.6 0 2.1 1.2 3.5 2.7 2.1 2.3 2.5 3.7 2.4 8.3-0.1 4.1-0.9 6.6-3 10-1.5 2.5-4.7 5.9-7.1 7.6-2.4 1.7-7.2 4-10.8 5.2-3.6 1.1-8.5 2.6-11 3.2-2.5 0.6-7.2 1.1-10.5 0.9-3.3-0.1-9.8-1.3-14.4-2.8-6.6-2-9.5-3.6-13.4-7.1-2.7-2.5-5.8-6.4-6.8-8.8-1.1-2.3-1.9-6.3-1.9-9 0-4.3 0.5-5.1 4.4-8.7 2.3-2.2 7.8-5.7 12.2-7.9 6.2-3 9.5-4 15.4-4.5 4.3-0.3 10.7-0.1 15 0.6zm7.4 50.4c0.5 0 1.1 0.8 1.3 1.9 0.1 1.1-0.3 2.4-0.9 3-0.7 0.5-3.8 1.3-6.8 1.8-3 0.5-8.5 0.6-12.1 0.3-3.6-0.3-7.3-1.3-8.3-2.1-0.9-0.8-1.7-2-1.6-2.5 0-0.6 2.2-0.8 5.8-0.4 3.1 0.3 7 0.5 8.7 0.3 1.7-0.1 5.3-0.7 8-1.2 2.8-0.5 5.4-1 5.9-1.1z"/>
				<path id="Path 6" class="s5" d="m121.3 50.1c0.4-0.1 1.5 1.6 2.4 3.6 0.9 2.1 2.4 6.6 3.2 10 0.9 3.5 1.4 6.3 1.1 6.3-0.3 0-3.1-1.3-6.3-2.8-3.1-1.5-5.7-3-5.7-3.5 0-0.4 0.5-0.7 1-0.7 0.5 0 1-0.7 1-1.5 0-0.8-1.1-2.1-2.5-2.8-1.4-0.6-2.5-1.4-2.5-1.7 0-0.3 0.6-1.2 1.3-2 0.7-0.8 2.3-2.3 3.7-3.2 1.4-0.9 2.8-1.7 3.3-1.7zm-46.6 0.9c0.4-0.1 1.6 0.8 2.6 2 1.3 1.6 1.5 2.5 0.6 4.2-0.6 1.3-0.7 2.6-0.2 3 0.4 0.4 2.7 0.1 5.1-0.7 2.3-0.8 7.7-1.6 12-1.6 5.3-0.1 9.1 0.4 12.2 1.6 2.5 1 5 2.2 5.5 2.8 0.7 0.6-0.9 0.7-4.5 0.2-3-0.4-8.7-0.9-12.5-1.1-4.2-0.2-9.4 0.3-13 1.2-3.3 0.8-8 2.5-10.5 3.6-2.5 1.1-4.8 2.2-5.2 2.4-0.5 0.2-0.5-0.8-0.2-2.4 0.3-1.5 1-4.4 1.5-6.5 0.5-2 2-4.8 3.4-6.2 1.3-1.4 2.8-2.5 3.2-2.5zm68.3 20c0.6 0 1 0.2 1 0.5 0 0.3-0.4 0.7-1 1-0.6 0.3-1 0-1-0.5 0-0.5 0.4-1 1-1z"/>
				<path id="Path 7" class="s2" d="m79 77c1.2 0 2.2 0.8 2.5 2 0.3 1.1 0.3 2.9 0 4-0.3 1.1-1 2-1.5 2-0.5 0-1.7-0.8-2.6-1.8-0.8-0.9-1.3-2.3-1-3 0.3-0.6 0.6-1.7 0.6-2.2 0-0.5 0.9-1 2-1zm22.7 0c0.7 0 1.6 1 1.9 2.3 0.3 1.2 0.1 3.2-0.5 4.5-0.9 1.8-1.5 2-3.1 1.2-1.1-0.5-2.1-2-2.2-3.3-0.1-1.3 0.4-2.8 1.2-3.5 0.8-0.7 2-1.2 2.7-1.2zm-37.4 5c0.7-0.1 2.3 0.8 3.7 1.9 1.7 1.3 2.2 2.3 1.5 3.1-0.7 0.7-1.8 0.7-3.8 0-1.5-0.5-2.9-1.5-3.2-2-0.3-0.5-0.3-1.5 0-2 0.4-0.5 1.1-1 1.8-1zm54.9 0c1.5 0 3.1 0.6 3.4 1.3 0.3 0.6 0.2 1.5-0.2 1.9-0.5 0.3-2.6 0.9-4.6 1.2-2.7 0.4-3.9 0.2-4-0.7-0.1-0.7 0.4-1.8 1.2-2.5 0.8-0.7 2.7-1.2 4.2-1.2zm-30.2 4c2.3 0 3.2 0.6 4 2.5 0.6 1.5 2.7 3.3 5.5 4.5 2.5 1.1 5.4 2 6.5 2 1.1 0 2.3 0.7 2.7 1.6 0.5 1 0.2 1.9-0.7 2.4-0.8 0.4-3.5 0.3-6-0.4-2.5-0.7-6.1-2.2-11.5-5.4l-3.5 2.4c-2 1.3-4.9 2.4-6.8 2.4-1.9 0-3.2-0.5-3.2-1.2 0.1-0.7 0.8-1.8 1.8-2.5 0.9-0.7 2.7-1.3 3.9-1.3 1.3 0 2.7-0.8 3.3-1.7 0.5-1 0.7-2.1 0.5-2.5-0.3-0.5-0.3-1.3 0-1.8 0.4-0.5 1.9-1 3.5-1zm-20.6 4.2c2-0.2 3.3 0.2 3.4 1 0.1 0.7-0.6 1.8-1.6 2.5-0.9 0.7-2.9 1.3-4.4 1.3-1.6 0-3.1-0.6-3.5-1.2-0.3-0.7 0.2-1.8 1.1-2.3 1-0.6 3.2-1.2 5-1.3zm50.5 0.2c2 0.3 4.3 1.3 5.1 2.1q1.5 1.5 0.5 2.4c-0.6 0.6-2.6 0.5-5.3-0.2-3.2-0.9-4.2-1.7-4.1-3.1 0.2-1.6 0.8-1.8 3.8-1.2z"/>
				<path id="Path 8" class="s1" d="m96.7 85c1.6 0 3.9 0.7 5.3 1.6 1.4 0.9 3.1 2.4 3.8 3.3 0.7 0.9 1.2 2.4 1.2 3.4 0 1-0.8 1.7-2 1.7-1.1 0-4-0.9-6.5-2-2.5-1.1-4.8-2.8-5.1-3.8-0.3-0.9-0.4-2.3 0-3 0.3-0.6 1.8-1.2 3.3-1.2zm-13.7 1c2 0 2.5 0.5 2.4 2.3 0 1.2-0.4 2.8-0.7 3.5-0.4 0.6-1.8 1.2-3.2 1.2-1.4 0-2.7 0.5-3 1-0.3 0.5-1.2 1-2 1-1.3 0-1.3-0.5 0.1-3.7 0.9-2.1 2.2-4.1 2.8-4.5 0.6-0.4 2.2-0.8 3.6-0.8z"/>
			</g>
			<path id="Path 0" class="s6" d="m117.1 74c1.4 0 2.1 1 2.6 3.8 0.3 2 0.5 4.4 0.4 5.2-0.1 0.8-1 2.1-1.9 2.8-0.9 0.7-2.3 1.2-2.9 1.2-0.7 0-2-0.8-2.9-1.7-1.1-1.3-1.3-2.7-0.9-4.8 0.4-1.7 1.4-3.8 2.3-4.8 0.8-0.9 2.3-1.7 3.3-1.7zm9.8 8.2c0.8 0.2 2.1 1.4 2.8 2.8 0.7 1.4 1.3 4.3 1.3 6.5 0.1 2.5-0.5 4.5-1.5 5.3-0.8 0.6-2.6 1-4 0.7-2.3-0.5-2.5-1-2.5-5.5 0-2.7 0.5-6.1 1.2-7.5 0.6-1.4 1.9-2.4 2.7-2.3z"/>
		</g>
		<path id="Path 0" class="s7" d="m49 13.3c2 0.2 2.6 0.8 2.8 3.2 0.2 1.9-0.6 4.3-2 6.5-1.3 1.9-3.7 4.1-5.3 4.9-1.6 0.8-3.6 1.7-4.4 2-0.8 0.3-1.6 1-1.8 1.6-0.2 0.5 1.1 1.5 2.8 2 1.8 0.5 3.7 1.8 4.3 2.7 0.8 1.2 0.8 2.3-0.2 4-0.7 1.3-2.9 2.9-5 3.6-2 0.8-5 1.2-6.7 1-2.6-0.3-3.3 0.2-5 3.4-1.1 2-1.6 4-1.2 4.5 0.5 0.4 1.6 0.8 2.5 0.9 1 0 2.7 0.4 4 0.7 1.2 0.4 2.2 1.5 2.2 2.4 0.1 1-1.4 3-3.2 4.5-1.8 1.5-4.8 3-6.5 3.3-2.8 0.4-3.4 1.1-4.3 4.2-0.5 2.1-0.8 3.9-0.7 4 0.1 0.1 1.6-0.3 3.2-0.9 1.6-0.6 3.8-0.8 4.8-0.5 1 0.4 1.7 1.8 1.7 3.4 0.1 1.6-1 4-2.5 5.5-1.4 1.6-3.9 3.3-5.5 3.8-2.8 0.9-3 1.3-2.5 9.4l5.8-0.2c3.1-0.1 5.9 0.1 6.2 0.5 0.2 0.5 0 2.5-0.5 4.5-0.6 2.1-1.8 4.2-2.7 4.8-1 0.5-2.6 1.6-3.5 2.5-1.5 1.2-1.6 2.1 0.2 8.5l3-2.5c1.6-1.4 4.1-2.5 5.5-2.5 1.8 0 2.6 0.6 3 2.2 0.3 1.3 0.5 3.9 0.5 5.8 0 2.2-0.8 4.2-2.1 5.5-1.8 1.8-1.9 2.3-0.7 4.2 0.7 1.3 1.8 2.5 2.3 2.7 0.5 0.3 2.2-0.6 3.8-2 1.5-1.3 3.6-2.4 4.7-2.4 1.1 0 2.5 1 3.1 2.2 0.6 1.3 0.9 3.9 0.7 5.8-0.3 1.9-0.7 4.1-0.9 4.9-0.2 0.9 1.1 2.3 3.4 3.5 2 1.2 4 3 4.3 4.1 0.3 1.1 0.1 2.4-0.5 3-0.8 0.7-3 0-7.1-2.3-3.4-1.8-6.2-2.8-6.5-2.2-0.3 0.6-2 1.6-3.7 2.3-1.9 0.7-5 1.1-7.3 0.8-3.3-0.5-4-1-4.3-3.1-0.2-1.4 0.5-3.3 1.5-4.3 1-1 3-2.1 7.1-3.2l-3.7-4.2c-3.4-4-3.8-4.1-7.6-3.4-2.2 0.4-5.1 0.5-6.4 0.2-1.3-0.3-3.3-1.9-4.5-3.4-1.7-2.2-1.9-3.1-1-4.5 0.6-0.9 3-2 9.4-3.2l-2.2-5.4c-2.1-4.8-2.7-5.5-5.8-6-1.9-0.3-4.5-1.6-5.8-2.9-1.6-1.6-2.2-3.4-2.2-10.2l9.5 1.6-0.8-3.3c-0.4-1.8-0.7-4.1-0.7-5.1 0-1.2-1-1.8-3.2-2.2-1.8-0.2-3.9-1-4.5-1.7-0.7-0.7-1.5-2.9-1.9-4.8-0.3-2.2 0-4.2 0.8-5.3 1.2-1.8 1.5-1.8 5.1-0.3 2 0.9 3.9 1.3 4.2 0.8 0.2-0.4 0.8-2.8 1.2-5.4 0.8-4.5 0.7-4.7-2.4-6.5-1.8-1-4-3.2-4.9-4.8-1.3-2.5-1.4-3.7-0.5-7.3 0.9-3.5 1.5-4.2 3.6-4.2 1.6 0 3.6 1.2 8.5 7l4.9-10.5-3-2.5c-2.3-1.9-3.1-3.3-3.1-6 0-1.9 0.5-4.7 1.1-6.3 0.6-1.5 1.7-2.7 2.4-2.7 0.6 0.1 2.1 0.8 3.2 1.8 1.1 0.9 2.8 2.8 5.4 6.7l2-3.5c1.2-1.9 2.1-4.5 2.1-5.8 0-1.2 0.6-3.3 1.3-4.7 0.6-1.4 2.3-3 3.7-3.5 1.4-0.5 3.4-1.1 4.5-1.3 1.1-0.3 3.1-0.4 4.5-0.4zm105 0.2c2.5 0.4 5.5 1.2 6.7 1.9 1.3 0.6 2.7 2.1 3.3 3.3 0.5 1.3 1 3.3 1 4.5 0 1.3 0.9 3.9 4.1 9.3l1.7-2.5c0.9-1.4 2.6-3.3 3.7-4.2 1.1-1 2.6-1.7 3.3-1.8 0.6 0 1.7 1.2 2.3 2.7 0.6 1.6 1.2 4.3 1.2 6.1 0.2 2.6-0.5 3.9-6.2 8.7l2.9 6c1.6 3.3 2.9 5.3 2.9 4.5 0.1-0.8 1.4-2.7 2.9-4.3 1.5-1.5 3.7-2.7 5-2.7 1.8 0 2.4 0.8 3.3 4.2 0.9 3.6 0.8 4.8-0.5 7.3-0.9 1.6-3 3.8-4.6 4.7-1.9 1.2-3 2.6-3 4 0 1.3 0.4 3.8 2 8.8l3.8-1.6c3.5-1.5 3.8-1.5 5 0.3 0.8 1.1 1.1 3.1 0.7 5.3-0.4 1.9-1.2 4.1-1.8 4.8-0.7 0.7-2.7 1.5-4.4 1.7-3 0.5-3.3 0.8-3.3 4 0 1.9-0.2 4.2-0.5 5-0.4 1.3 0.2 1.4 8.5 0v3.7c0 2.1-0.3 4.5-0.7 5.4-0.5 0.9-2 2.3-3.5 3-1.6 0.8-3.8 1.4-5 1.4-1.9 0-2.7 1.1-6.3 10.9l3.5 0.7c1.9 0.4 4.1 1.2 4.8 1.8 0.7 0.6 1.3 1.8 1.3 2.6 0 0.8-1.1 2.5-2.3 3.8-1.7 1.8-3.4 2.3-6.8 2.3-2.5 0-5.2-0.3-6-0.6-0.9-0.3-2.9 1.2-5.2 4-3 3.5-3.4 4.5-2 4.5 0.9-0.1 2.9 0.8 4.5 2 2 1.5 2.6 2.7 2.5 4.7-0.3 2.4-0.8 2.9-4.3 3.3-2.2 0.3-5.1 0.1-6.5-0.4-1.4-0.5-2.9-1.6-3.5-2.3-0.8-1-2.2-0.7-7 1.8-3.3 1.7-6.6 2.8-7.2 2.5-0.7-0.3-1.3-1.3-1.3-2.1 0-0.8 0.6-2 1.3-2.6 0.6-0.5 2.7-1.9 4.5-3 3-1.8 3.1-2 2-4.9-1-2.1-1-4-0.3-6.7 0.7-2.8 1.6-3.9 3.3-4.1 1.2-0.1 3.4 0.9 5 2.2 1.5 1.4 3.1 2.3 3.7 2 0.6-0.2 1.6-1.4 2.3-2.7 1.2-1.9 1.1-2.4-0.7-4.2-1.1-1.1-2.1-3.1-2.1-4.5 0-1.4 0.3-4 0.7-5.8 0.6-2.5 1.3-3.2 3.1-3.2 1.2 0 3.5 1.1 8.2 5l1-3.5c0.8-2.9 0.7-3.8-0.7-5-1-0.9-2.6-2-3.5-2.5-1-0.6-2.2-2.7-2.8-4.8-0.5-2-0.7-4-0.5-4.5 0.3-0.4 3.1-0.6 12-0.3l0.3-4.2c0.2-3.9 0-4.3-2.8-5.2-1.7-0.5-4.1-2.2-5.5-3.8-1.5-1.5-2.6-3.9-2.5-5.5 0-1.6 0.7-3 1.8-3.4 0.9-0.3 3-0.1 4.7 0.5 1.7 0.6 3.1 1 3.2 0.9 0.1-0.1-0.2-1.9-0.7-4-0.9-3.1-1.5-3.8-4.2-4.2-1.8-0.3-4.8-1.8-6.6-3.3-1.8-1.5-3.3-3.5-3.2-4.5 0-0.9 1-2 2.3-2.4 1.2-0.4 2.6-0.8 3.2-0.8 0.6-0.1 1.8-0.3 2.8-0.3 1.5-0.2 1.5-0.6-0.6-4.5-2.1-3.8-2.5-4.2-5.7-3.9-1.9 0.2-4.8-0.2-6.5-0.9-1.7-0.7-3.5-2-4.2-2.9-0.7-0.8-1.3-2.1-1.3-2.8 0-0.6 0.7-1.9 1.5-2.7 0.8-0.8 2.6-1.7 4-2 1.4-0.3 2.3-1.1 2.1-1.8-0.1-0.6-0.9-1.5-1.7-1.8-0.8-0.3-2.7-1.2-4.4-2-1.7-0.8-4-3-5.3-4.9-1.2-1.9-2.3-4.7-2.4-6.1-0.1-1.4 0.3-2.9 0.8-3.3 0.5-0.4 2.9-0.4 5.4-0.1z"/>
		<g id="icon_더보기">
			<path id="Path 0" class="s8" d="m134.8 124.1c14.7-0.1 16.2 0.1 16.6 1.7 0.2 0.9 0.3 8.2 0 30.7h-32.9l-0.2-15c-0.1-8.2-0.1-15.4 0.1-16.1 0.2-0.8 5.2-1.2 16.4-1.3z"/>
			<path id="Path 1" class="s9" d="m128 123.4c5.2 0 7.3 0.1 4.5 0.3-2.8 0.2-7 0.2-9.5 0-2.5-0.2-0.2-0.3 5-0.3zm12.5-0.4c0.3 0 0.5 0.2 0.5 0.5 0 0.3-0.2 0.5-0.5 0.5-0.3 0-0.5-0.2-0.5-0.5 0-0.3 0.2-0.5 0.5-0.5zm4 0c0.3 0 0.5 0.2 0.5 0.5 0 0.3-0.2 0.5-0.5 0.5-0.3 0-0.5-0.2-0.5-0.5 0-0.3 0.2-0.5 0.5-0.5zm-27 2c0.3 0 0.5 0.2 0.5 0.5 0 0.3-0.2 0.5-0.5 0.5-0.3 0-0.5-0.2-0.5-0.5 0-0.3 0.2-0.5 0.5-0.5zm35 8c0.3 0 0.5 0.2 0.5 0.5 0 0.3-0.2 0.5-0.5 0.5-0.3 0-0.5-0.2-0.5-0.5 0-0.3 0.2-0.5 0.5-0.5zm-34.8 2.5c0.2 0.6 0.2 1.7 0 2.5-0.3 0.8-0.5 0.4-0.5-1 0-1.4 0.2-2.1 0.5-1.5zm-0.2 7.5c0.3 0 0.5 0.2 0.5 0.5 0 0.3-0.2 0.5-0.5 0.5-0.3 0-0.5-0.2-0.5-0.5 0-0.3 0.2-0.5 0.5-0.5zm35 1c0.3 0 0.5 0.2 0.5 0.5 0 0.3-0.2 0.5-0.5 0.5-0.3 0-0.5-0.2-0.5-0.5 0-0.3 0.2-0.5 0.5-0.5zm-34.8 5.2c0.5 0.5 0.5 1.1 0 1.5-0.4 0.5-0.8 0.1-0.8-0.7 0-0.8 0.4-1.2 0.8-0.8zm3.8 7.8c0.3 0 0.5 0.2 0.5 0.5 0 0.3-0.2 0.5-0.5 0.5-0.3 0-0.5-0.2-0.5-0.5 0-0.3 0.2-0.5 0.5-0.5zm19 0c0.3 0 0.5 0.2 0.5 0.5 0 0.3-0.2 0.5-0.5 0.5-0.3 0-0.5-0.2-0.5-0.5 0-0.3 0.2-0.5 0.5-0.5z"/>
			<path id="Path 2" class="s10" d="m118.5 123c0.3 0 0.5 0.2 0.5 0.5 0 0.3-0.6 0.8-1.3 1.2q-1.2 0.8-0.4-0.5c0.4-0.6 1-1.2 1.2-1.2zm19.9 0.1c1.1-0.1 1.7 0.2 1.5 0.5-0.2 0.3-1.1 0.3-1.9 0.1-1.1-0.4-1-0.6 0.4-0.6zm4 0c1.1-0.1 1.7 0.2 1.5 0.5-0.2 0.3-1.1 0.3-1.9 0.1-1.1-0.4-1-0.6 0.4-0.6zm2.1 0.2l4.3-0.1c3.8-0.2 4.2 0 4.1 2-0.1 1.6-0.2 1.8-0.5 0.5-0.3-1.2-1.6-1.8-4.1-2zm8 10.6c0.2 0 0.5 0.3 0.5 0.5 0 0.3-0.3 0.5-0.5 0.5-0.3 0-0.5-0.2-0.5-0.5 0-0.2 0.2-0.5 0.5-0.5zm-0.3 2.2c0.2 0.4 0.3 1.3 0.1 2-0.1 0.7-0.2 0.4-0.3-0.7-0.1-1.1 0.1-1.7 0.2-1.3zm0 5c0.2 0.4 0.3 1.3 0.1 2-0.1 0.7-0.2 0.4-0.3-0.7-0.1-1.1 0.1-1.7 0.2-1.3zm0.5 5.1c0.4 0.4 0.4 1.1 0 1.5-0.5 0.4-0.8 0.1-0.8-0.8 0-0.8 0.3-1.1 0.8-0.7zm-35.3 1.7c0.3 0 0.5 0.3 0.5 0.5 0 0.3-0.2 0.5-0.5 0.5-0.2 0-0.5-0.2-0.5-0.5 0-0.2 0.3-0.5 0.5-0.5zm35 3c0.3 0 0.5 0.3 0.5 0.5 0 0.3-0.2 0.5-0.5 0.5-0.2 0-0.5-0.2-0.5-0.5 0-0.2 0.3-0.5 0.5-0.5zm-35.1 5c0.4 0 0.9 0.5 1.1 1 0.3 0.6 0.3 1 0 1-0.2 0-0.7-0.4-1.1-1-0.3-0.5-0.3-1 0-1zm24.1 1c0.3 0 0.5 0.3 0.5 0.5 0 0.3-0.2 0.5-0.5 0.5-0.2 0-0.5-0.2-0.5-0.5 0-0.2 0.3-0.5 0.5-0.5z"/>
			<path id="Path 3" class="s11" d="m120.9 124c0.8 0 1.1 0.3 0.8 0.8-0.4 0.4-1 0.4-1.5-0.1-0.4-0.4-0.1-0.7 0.7-0.7zm9.6 0c0.3 0 0.5 0.2 0.5 0.5 0 0.3-0.2 0.5-0.5 0.5-0.3 0-0.5-0.2-0.5-0.5 0-0.3 0.2-0.5 0.5-0.5zm8.4 0c0.8 0 1.1 0.3 0.8 0.7-0.4 0.5-1 0.5-1.5 0-0.4-0.4-0.1-0.7 0.7-0.7zm9.6 0c0.3 0 0.5 0.2 0.5 0.5 0 0.3-0.2 0.5-0.5 0.5-0.3 0-0.5-0.2-0.5-0.5 0-0.3 0.2-0.5 0.5-0.5zm3 1c0.3 0 0.5 0.2 0.5 0.5 0 0.3-0.2 0.5-0.5 0.5-0.3 0-0.5-0.2-0.5-0.5 0-0.3 0.2-0.5 0.5-0.5zm-34 6c0.3 0 0.5 0.2 0.5 0.5 0 0.3-0.2 0.5-0.5 0.5-0.3 0-0.5-0.2-0.5-0.5 0-0.3 0.2-0.5 0.5-0.5zm34.1 3.5c0.3 0.6 0.3 1.9 0.1 3-0.3 1.3-0.5 0.9-0.5-1 0-1.7 0.2-2.6 0.4-2zm-0.3 6.7c0.2 0.4 0.2 1.3 0.1 2-0.1 0.7-0.3 0.4-0.3-0.7-0.1-1.1 0-1.7 0.2-1.3zm0.4 6.3c0.2 1.1 0.2 2.7 0 3.5-0.3 0.8-0.5-0.1-0.5-2 0-1.9 0.2-2.6 0.5-1.5zm-5.8 9.5c0.8 0 1.1 0.3 0.8 0.7-0.4 0.5-1 0.5-1.5 0-0.4-0.4-0.1-0.7 0.7-0.7zm3.6 0c0.3 0 0.5 0.2 0.5 0.5 0 0.3-0.2 0.5-0.5 0.5-0.3 0-0.5-0.2-0.5-0.5 0-0.3 0.2-0.5 0.5-0.5z"/>
			<path id="Path 4" class="s12" d="m118.5 124c0.3 0 0.5 0.2 0.5 0.5 0 0.3-0.2 0.5-0.5 0.5-0.3 0-0.5-0.2-0.5-0.5 0-0.3 0.2-0.5 0.5-0.5zm-0.8 3.3c0.5 0.4 0.5 1 0 1.5-0.4 0.4-0.8 0-0.8-0.8 0-0.8 0.4-1.2 0.8-0.7zm-0.2 4.7c0.3 0 0.5 0.2 0.5 0.5 0 0.3-0.2 0.5-0.5 0.5-0.3 0-0.5-0.2-0.5-0.5 0-0.3 0.2-0.5 0.5-0.5zm0.2 7.3c0.5 0.4 0.5 1 0 1.5-0.4 0.4-0.8 0-0.8-0.8 0-0.8 0.4-1.2 0.8-0.7zm-0.2 12.7c0.3 0 0.5 0.2 0.5 0.5 0 0.3-0.2 0.5-0.5 0.5-0.3 0-0.5-0.2-0.5-0.5 0-0.3 0.2-0.5 0.5-0.5zm34 4c0.3 0 0.5 0.2 0.5 0.5 0 0.3-0.2 0.5-0.5 0.5-0.3 0-0.5-0.2-0.5-0.5 0-0.3 0.2-0.5 0.5-0.5zm-32 1c0.3 0 0.5 0.2 0.5 0.5 0 0.3-0.2 0.5-0.5 0.5-0.3 0-0.5-0.2-0.5-0.5 0-0.3 0.2-0.5 0.5-0.5zm7 0c0.3 0 0.5 0.2 0.5 0.5 0 0.3-0.2 0.5-0.5 0.5-0.3 0-0.5-0.2-0.5-0.5 0-0.3 0.2-0.5 0.5-0.5zm6.4 0c0.8 0 1.1 0.3 0.8 0.8-0.4 0.4-1 0.4-1.5-0.1-0.4-0.4-0.1-0.7 0.7-0.7zm4 0c0.8 0 1.1 0.3 0.8 0.8-0.4 0.4-1 0.4-1.5-0.1-0.4-0.4-0.1-0.7 0.7-0.7zm6.6 0c0.3 0 0.5 0.2 0.5 0.5 0 0.3-0.2 0.5-0.5 0.5-0.3 0-0.5-0.2-0.5-0.5 0-0.3 0.2-0.5 0.5-0.5z"/>
			<path id="Path 5" class="s13" d="m151.5 124c0.3 0 0.5 0.2 0.5 0.5 0 0.3-0.2 0.5-0.5 0.5-0.3 0-0.5-0.2-0.5-0.5 0-0.3 0.2-0.5 0.5-0.5zm1.2 7.3c0.5 0.4 0.5 1 0 1.5-0.4 0.4-0.8 0-0.8-0.8 0-0.8 0.4-1.2 0.8-0.7zm-35.2 1.7c0.3 0 0.5 0.2 0.5 0.5 0 0.3-0.2 0.5-0.5 0.5-0.3 0-0.5-0.2-0.5-0.5 0-0.3 0.2-0.5 0.5-0.5zm35.2 6.3c0.5 0.4 0.5 1 0 1.5-0.4 0.4-0.8 0-0.8-0.8 0-0.8 0.4-1.2 0.8-0.7zm-35.2 4.7c0.3 0 0.5 0.2 0.5 0.5 0 0.3-0.2 0.5-0.5 0.5-0.3 0-0.5-0.2-0.5-0.5 0-0.3 0.2-0.5 0.5-0.5zm34.8 8.2c0.2 0.4 0.2 1.3 0.1 2-0.1 0.7-0.3 0.4-0.3-0.7-0.1-1.1 0-1.7 0.2-1.3zm-13.8 4.8c0.3 0 0.5 0.2 0.5 0.5 0 0.3-0.2 0.5-0.5 0.5-0.3 0-0.5-0.2-0.5-0.5 0-0.3 0.2-0.5 0.5-0.5zm4 0c0.3 0 0.5 0.2 0.5 0.5 0 0.3-0.2 0.5-0.5 0.5-0.3 0-0.5-0.2-0.5-0.5 0-0.3 0.2-0.5 0.5-0.5zm8 0c0.3 0 0.5 0.2 0.5 0.5 0 0.3-0.2 0.5-0.5 0.5-0.3 0-0.5-0.2-0.5-0.5 0-0.3 0.2-0.5 0.5-0.5z"/>
			<path id="Path 6" class="s14" d="m117.5 126c0.3 0 0.5 0.2 0.5 0.5 0 0.3-0.2 0.5-0.5 0.5-0.3 0-0.5-0.2-0.5-0.5 0-0.3 0.2-0.5 0.5-0.5zm35.2 1.5c0.2 0.6 0.2 1.7 0 2.5-0.3 0.8-0.5 0.4-0.5-1 0-1.4 0.2-2 0.5-1.5zm-35.2 6.5c0.3 0 0.5 0.2 0.5 0.5 0 0.3-0.2 0.5-0.5 0.5-0.3 0-0.5-0.2-0.5-0.5 0-0.3 0.2-0.5 0.5-0.5zm0.2 7.3c0.5 0.4 0.5 1 0 1.5-0.4 0.4-0.8 0-0.8-0.8 0-0.8 0.4-1.2 0.8-0.7zm34.8 3.7c0.3 0 0.5 0.2 0.5 0.5 0 0.3-0.2 0.5-0.5 0.5-0.3 0-0.5-0.2-0.5-0.5 0-0.3 0.2-0.5 0.5-0.5zm-34.8 1.3c0.5 0.4 0.5 1 0 1.4-0.4 0.5-0.8 0.1-0.8-0.7 0-0.8 0.4-1.2 0.8-0.8zm-0.2 4.8c0.3 0 0.5 0.2 0.5 0.5 0 0.3-0.2 0.5-0.5 0.5-0.3 0-0.5-0.2-0.5-0.5 0-0.3 0.2-0.5 0.5-0.5zm35 4c0.3 0 0.5 0.2 0.5 0.5 0 0.3-0.2 0.5-0.5 0.5-0.3 0-0.5-0.2-0.5-0.5 0-0.3 0.2-0.5 0.5-0.5zm-23 2c0.3 0 0.5 0.2 0.5 0.5 0 0.3-0.2 0.5-0.5 0.5-0.3 0-0.5-0.2-0.5-0.5 0-0.3 0.2-0.5 0.5-0.5zm18 0c0.3 0 0.5 0.2 0.5 0.5 0 0.3-0.2 0.5-0.5 0.5-0.3 0-0.5-0.2-0.5-0.5 0-0.3 0.2-0.5 0.5-0.5z"/>
			<path id="Path 7" class="s15" d="m117.7 153.3c0.5 0.4 0.5 1 0 1.4-0.4 0.5-0.8 0.1-0.8-0.7 0-0.8 0.4-1.2 0.8-0.8zm0.8 2.8c0.3 0 0.5 0.2 0.5 0.5 0 0.3-0.2 0.5-0.5 0.5-0.3 0-0.5-0.2-0.5-0.5 0-0.3 0.2-0.5 0.5-0.5zm2 1c0.3 0 0.5 0.2 0.5 0.5 0 0.3-0.2 0.5-0.5 0.5-0.3 0-0.5-0.2-0.5-0.5 0-0.3 0.2-0.5 0.5-0.5zm3.9 0.1c1.1-0.1 1.7 0.2 1.5 0.5-0.2 0.3-1.1 0.3-1.9 0.1-1.1-0.4-1-0.6 0.4-0.6zm10.5-0.1c0.8 0 1.1 0.3 0.8 0.7-0.4 0.5-1 0.4-1.5 0-0.4-0.4-0.1-0.7 0.7-0.7zm9.6 0c0.3 0 0.5 0.2 0.5 0.5 0 0.3-0.2 0.5-0.5 0.5-0.3 0-0.5-0.2-0.5-0.5 0-0.3 0.2-0.5 0.5-0.5z"/>
			<path id="Path 8" class="s16" d="m117.7 129.3c0.5 0.4 0.5 1 0 1.4-0.4 0.5-0.8 0.1-0.8-0.7 0-0.8 0.4-1.2 0.8-0.8zm-0.2 15.8c0.3 0 0.5 0.2 0.5 0.5 0 0.3-0.2 0.5-0.5 0.5-0.3 0-0.5-0.2-0.5-0.5 0-0.3 0.2-0.5 0.5-0.5zm0 10c0.3 0 0.5 0.2 0.5 0.5 0 0.3-0.2 0.5-0.5 0.5-0.3 0-0.5-0.2-0.5-0.5 0-0.3 0.2-0.5 0.5-0.5zm5 2c0.3 0 0.5 0.2 0.5 0.5 0 0.3-0.2 0.5-0.5 0.5-0.3 0-0.5-0.2-0.5-0.5 0-0.3 0.2-0.5 0.5-0.5zm9 0c0.3 0 0.5 0.2 0.5 0.5 0 0.3-0.2 0.5-0.5 0.5-0.3 0-0.5-0.2-0.5-0.5 0-0.3 0.2-0.5 0.5-0.5zm17 0c0.3 0 0.5 0.2 0.5 0.5 0 0.3-0.2 0.5-0.5 0.5-0.3 0-0.5-0.2-0.5-0.5 0-0.3 0.2-0.5 0.5-0.5z"/>
			<path id="Path 9" class="s17" d="m128.5 157c0.3 0 0.5 0.2 0.5 0.5 0 0.3-0.2 0.5-0.5 0.5-0.3 0-0.5-0.2-0.5-0.5 0-0.3 0.2-0.5 0.5-0.5zm2 0c0.3 0 0.5 0.2 0.5 0.5 0 0.3-0.2 0.5-0.5 0.5-0.3 0-0.5-0.2-0.5-0.5 0-0.3 0.2-0.5 0.5-0.5z"/>
			<path id="Path 10" class="s18" d="m152.5 135c0.3 0 0.5 0.2 0.5 0.5 0 0.3-0.2 0.5-0.5 0.5-0.3 0-0.5-0.2-0.5-0.5 0-0.3 0.2-0.5 0.5-0.5z"/>
			<path id="Path 11" class="s19" d="m127.5 157c0.3 0 0.5 0.2 0.5 0.5 0 0.3-0.2 0.5-0.5 0.5-0.3 0-0.5-0.2-0.5-0.5 0-0.3 0.2-0.5 0.5-0.5z"/>
			<path id="Path 12" class="s20" d="m121.5 128h26.5v25l-26.2-0.5-0.2-12.3z"/>
			<path id="Path 13" class="s21" d="m143.5 127c0.3 0 0.5 0.2 0.5 0.5 0 0.3-0.2 0.5-0.5 0.5-0.3 0-0.5-0.2-0.5-0.5 0-0.3 0.2-0.5 0.5-0.5zm5.2 4.3c0.5 0.4 0.5 1 0 1.5-0.4 0.4-0.8 0-0.8-0.8 0-0.8 0.4-1.2 0.8-0.7zm-0.2 3.7c0.3 0 0.5 0.2 0.5 0.5 0 0.3-0.2 0.5-0.5 0.5-0.3 0-0.5-0.2-0.5-0.5 0-0.3 0.2-0.5 0.5-0.5zm0 2c0.3 0 0.5 0.2 0.5 0.5 0 0.3-0.2 0.5-0.5 0.5-0.3 0-0.5-0.2-0.5-0.5 0-0.3 0.2-0.5 0.5-0.5zm0 3c0.3 0 0.5 0.2 0.5 0.5 0 0.3-0.2 0.5-0.5 0.5-0.3 0-0.5-0.2-0.5-0.5 0-0.3 0.2-0.5 0.5-0.5zm-27 7c0.3 0 0.5 0.2 0.5 0.5 0 0.3-0.2 0.5-0.5 0.5-0.3 0-0.5-0.2-0.5-0.5 0-0.3 0.2-0.5 0.5-0.5zm27 5c0.3 0 0.5 0.2 0.5 0.5 0 0.3-0.2 0.5-0.5 0.5-0.3 0-0.5-0.2-0.5-0.5 0-0.3 0.2-0.5 0.5-0.5zm-27 1c0.3 0 0.5 0.2 0.5 0.5 0 0.3-0.2 0.5-0.5 0.5-0.3 0-0.5-0.2-0.5-0.5 0-0.3 0.2-0.5 0.5-0.5zm8.4 0c0.8 0 1.1 0.3 0.8 0.8-0.4 0.4-1 0.4-1.5-0.1-0.4-0.4-0.1-0.7 0.7-0.7zm9.6 0c0.3 0 0.5 0.2 0.5 0.5 0 0.3-0.2 0.5-0.5 0.5-0.3 0-0.5-0.2-0.5-0.5 0-0.3 0.2-0.5 0.5-0.5z"/>
			<path id="Path 14" class="s22" d="m126.5 127c0.3 0 0.5 0.2 0.5 0.5 0 0.3-0.2 0.5-0.5 0.5-0.3 0-0.5-0.2-0.5-0.5 0-0.3 0.2-0.5 0.5-0.5zm2 0c0.3 0 0.5 0.2 0.5 0.5 0 0.3-0.2 0.5-0.5 0.5-0.3 0-0.5-0.2-0.5-0.5 0-0.3 0.2-0.5 0.5-0.5zm2 0c0.3 0 0.5 0.2 0.5 0.5 0 0.3-0.2 0.5-0.5 0.5-0.3 0-0.5-0.2-0.5-0.5 0-0.3 0.2-0.5 0.5-0.5zm2 0c0.3 0 0.5 0.2 0.5 0.5 0 0.3-0.2 0.5-0.5 0.5-0.3 0-0.5-0.2-0.5-0.5 0-0.3 0.2-0.5 0.5-0.5zm4 0c0.3 0 0.5 0.2 0.5 0.5 0 0.3-0.2 0.5-0.5 0.5-0.3 0-0.5-0.2-0.5-0.5 0-0.3 0.2-0.5 0.5-0.5zm8 0c0.3 0 0.5 0.2 0.5 0.5 0 0.3-0.2 0.5-0.5 0.5-0.3 0-0.5-0.2-0.5-0.5 0-0.3 0.2-0.5 0.5-0.5zm-23 16c0.3 0 0.5 0.2 0.5 0.5 0 0.3-0.2 0.5-0.5 0.5-0.3 0-0.5-0.2-0.5-0.5 0-0.3 0.2-0.5 0.5-0.5zm27 3c0.3 0 0.5 0.2 0.5 0.5 0 0.3-0.2 0.5-0.5 0.5-0.3 0-0.5-0.2-0.5-0.5 0-0.3 0.2-0.5 0.5-0.5z"/>
			<path id="Path 15" class="s23" d="m129.5 127c0.3 0 0.5 0.2 0.5 0.5 0 0.3-0.2 0.5-0.5 0.5-0.3 0-0.5-0.2-0.5-0.5 0-0.3 0.2-0.5 0.5-0.5zm-8 7c0.3 0 0.5 0.2 0.5 0.5 0 0.3-0.2 0.5-0.5 0.5-0.3 0-0.5-0.2-0.5-0.5 0-0.3 0.2-0.5 0.5-0.5zm-0.2 2.2c0.2 0.4 0.2 1.3 0.1 2-0.1 0.7-0.3 0.4-0.3-0.7-0.1-1.1 0-1.7 0.2-1.3zm0.2 12.8c0.3 0 0.5 0.2 0.5 0.5 0 0.3-0.2 0.5-0.5 0.5-0.3 0-0.5-0.2-0.5-0.5 0-0.3 0.2-0.5 0.5-0.5zm0 3c0.3 0 0.5 0.2 0.5 0.5 0 0.3-0.2 0.5-0.5 0.5-0.3 0-0.5-0.2-0.5-0.5 0-0.3 0.2-0.5 0.5-0.5zm2 1c0.3 0 0.5 0.2 0.5 0.5 0 0.3-0.2 0.5-0.5 0.5-0.3 0-0.5-0.2-0.5-0.5 0-0.3 0.2-0.5 0.5-0.5zm5 0c0.3 0 0.5 0.2 0.5 0.5 0 0.3-0.2 0.5-0.5 0.5-0.3 0-0.5-0.2-0.5-0.5 0-0.3 0.2-0.5 0.5-0.5zm3 0c0.3 0 0.5 0.2 0.5 0.5 0 0.3-0.2 0.5-0.5 0.5-0.3 0-0.5-0.2-0.5-0.5 0-0.3 0.2-0.5 0.5-0.5zm2.9 0.1c1.1-0.1 1.7 0.2 1.5 0.5-0.2 0.3-1.1 0.3-1.9 0.1-1.1-0.4-1-0.6 0.4-0.6zm8.1-0.1c0.3 0 0.5 0.2 0.5 0.5 0 0.3-0.2 0.5-0.5 0.5-0.3 0-0.5-0.2-0.5-0.5 0-0.3 0.2-0.5 0.5-0.5z"/>
			<path id="Path 16" class="s24" d="m125.5 127c0.3 0 0.5 0.2 0.5 0.5 0 0.3-0.2 0.5-0.5 0.5-0.3 0-0.5-0.2-0.5-0.5 0-0.3 0.2-0.5 0.5-0.5zm14.4 0c0.8 0 1.1 0.3 0.8 0.8-0.4 0.4-1 0.4-1.5-0.1-0.4-0.4-0.1-0.7 0.7-0.7zm8.6 3c0.3 0 0.5 0.2 0.5 0.5 0 0.3-0.2 0.5-0.5 0.5-0.3 0-0.5-0.2-0.5-0.5 0-0.3 0.2-0.5 0.5-0.5zm0.2 3.3c0.5 0.4 0.5 1 0 1.5-0.4 0.4-0.8 0-0.8-0.8 0-0.8 0.4-1.2 0.8-0.7zm-0.2 2.7c0.3 0 0.5 0.2 0.5 0.5 0 0.3-0.2 0.5-0.5 0.5-0.3 0-0.5-0.2-0.5-0.5 0-0.3 0.2-0.5 0.5-0.5zm0.2 2.3c0.5 0.4 0.5 1 0 1.5-0.4 0.4-0.8 0-0.8-0.8 0-0.8 0.4-1.2 0.8-0.7zm0 3c0.5 0.4 0.5 1 0 1.5-0.4 0.4-0.8 0-0.8-0.8 0-0.8 0.4-1.2 0.8-0.7zm-27 4c0.5 0.4 0.5 1 0 1.5-0.4 0.4-0.8 0-0.8-0.8 0-0.8 0.4-1.2 0.8-0.7zm27 3.2c0.2 0.6 0.2 1.7 0 2.5-0.3 0.8-0.5 0.4-0.5-1 0-1.4 0.2-2.1 0.5-1.5zm-8.2 4.5c0.3 0 0.5 0.2 0.5 0.5 0 0.3-0.2 0.5-0.5 0.5-0.3 0-0.5-0.2-0.5-0.5 0-0.3 0.2-0.5 0.5-0.5zm7 0c0.3 0 0.5 0.2 0.5 0.5 0 0.3-0.2 0.5-0.5 0.5-0.3 0-0.5-0.2-0.5-0.5 0-0.3 0.2-0.5 0.5-0.5z"/>
			<path id="Path 17" class="s25" d="m121.5 130c0.3 0 0.5 0.2 0.5 0.5 0 0.3-0.2 0.5-0.5 0.5-0.3 0-0.5-0.2-0.5-0.5 0-0.3 0.2-0.5 0.5-0.5zm0 3c0.3 0 0.5 0.2 0.5 0.5 0 0.3-0.2 0.5-0.5 0.5-0.3 0-0.5-0.2-0.5-0.5 0-0.3 0.2-0.5 0.5-0.5zm0 8c0.3 0 0.5 0.2 0.5 0.5 0 0.3-0.2 0.5-0.5 0.5-0.3 0-0.5-0.2-0.5-0.5 0-0.3 0.2-0.5 0.5-0.5zm0 7c0.3 0 0.5 0.2 0.5 0.5 0 0.3-0.2 0.5-0.5 0.5-0.3 0-0.5-0.2-0.5-0.5 0-0.3 0.2-0.5 0.5-0.5zm0 2c0.3 0 0.5 0.2 0.5 0.5 0 0.3-0.2 0.5-0.5 0.5-0.3 0-0.5-0.2-0.5-0.5 0-0.3 0.2-0.5 0.5-0.5zm4.5 3.2c1.4 0 1.9 0.1 1.3 0.4-0.7 0.2-1.9 0.2-2.5 0-0.7-0.3-0.2-0.4 1.2-0.4zm6.5-0.2c0.3 0 0.5 0.2 0.5 0.5 0 0.3-0.2 0.5-0.5 0.5-0.3 0-0.5-0.2-0.5-0.5 0-0.3 0.2-0.5 0.5-0.5zm4.4 0c0.8 0 1.1 0.3 0.8 0.7-0.4 0.5-1 0.5-1.5 0-0.4-0.4-0.1-0.7 0.7-0.7zm4.6 0c0.3 0 0.5 0.2 0.5 0.5 0 0.3-0.2 0.5-0.5 0.5-0.3 0-0.5-0.2-0.5-0.5 0-0.3 0.2-0.5 0.5-0.5zm2.9 0.1c1.1-0.1 1.7 0.2 1.5 0.5-0.2 0.3-1.1 0.3-1.9 0.1-1.1-0.4-1-0.6 0.4-0.6z"/>
			<path id="Path 18" class="s26" d="m148.7 128.3c0.5 0.4 0.5 1 0 1.4-0.4 0.5-0.8 0.1-0.8-0.7 0-0.8 0.4-1.2 0.8-0.8zm-27 3c0.5 0.5 0.5 1.1 0 1.5-0.4 0.5-0.8 0.1-0.8-0.7 0-0.8 0.4-1.2 0.8-0.8zm-0.2 3.8c0.3 0 0.5 0.2 0.5 0.5 0 0.3-0.2 0.5-0.5 0.5-0.3 0-0.5-0.2-0.5-0.5 0-0.3 0.2-0.5 0.5-0.5zm0 5c0.3 0 0.5 0.2 0.5 0.5 0 0.3-0.2 0.5-0.5 0.5-0.3 0-0.5-0.2-0.5-0.5 0-0.3 0.2-0.5 0.5-0.5zm1 13c0.3 0 0.5 0.2 0.5 0.5 0 0.3-0.2 0.5-0.5 0.5-0.3 0-0.5-0.2-0.5-0.5 0-0.3 0.2-0.5 0.5-0.5zm16 0c0.3 0 0.5 0.2 0.5 0.5 0 0.3-0.2 0.5-0.5 0.5-0.3 0-0.5-0.2-0.5-0.5 0-0.3 0.2-0.5 0.5-0.5zm8 0c0.3 0 0.5 0.2 0.5 0.5 0 0.3-0.2 0.5-0.5 0.5-0.3 0-0.5-0.2-0.5-0.5 0-0.3 0.2-0.5 0.5-0.5z"/>
			<path id="Path 19" class="s8" d="m135.7 131q1.3 0 1.3 4c0 3.9 0.1 4 3.8 4.3 2 0.1 3.7 0.6 3.7 1.2 0 0.6-1.7 1.1-3.7 1.3-3.7 0.2-3.8 0.3-3.8 4.2 0 2.9-0.4 4-1.5 4q-1.5 0-2-4c-0.3-2.2-1.1-4-1.7-4.1-0.7-0.1-2.4-0.2-3.7-0.2-1.3-0.1-2.6-0.8-2.8-1.5-0.2-0.8 1.1-1.2 8.7-1.2l-0.7-3.4c-0.3-1.9-0.3-3.7 0.2-4 0.5-0.3 1.4-0.6 2.2-0.6z"/>
			<path id="Path 20" class="s21" d="m133.5 131c0.3 0 0.5 0.2 0.5 0.5 0 0.3-0.2 0.5-0.5 0.5-0.3 0-0.5-0.2-0.5-0.5 0-0.3 0.2-0.5 0.5-0.5zm0 2c0.3 0 0.5 0.2 0.5 0.5 0 0.3-0.2 0.5-0.5 0.5-0.3 0-0.5-0.2-0.5-0.5 0-0.3 0.2-0.5 0.5-0.5zm-3.1 5.1c1.1-0.1 1.7 0.2 1.5 0.5-0.2 0.3-1.1 0.3-1.9 0.1-1.1-0.4-1-0.6 0.4-0.6zm7.5-0.1c0.8 0 1.1 0.3 0.8 0.8-0.4 0.4-1 0.4-1.5-0.1-0.4-0.4-0.1-0.7 0.7-0.7zm3.5 0.1c1.1-0.1 1.7 0.2 1.5 0.5-0.2 0.3-1.1 0.3-1.9 0.1-1.1-0.4-1-0.6 0.4-0.6zm3.1 0.9c0.3 0 0.5 0.2 0.5 0.5 0 0.3-0.2 0.5-0.5 0.5-0.3 0-0.5-0.2-0.5-0.5 0-0.3 0.2-0.5 0.5-0.5zm-10.8 7.3c0.5 0.4 0.5 1 0 1.5-0.4 0.4-0.8 0-0.8-0.8 0-0.8 0.4-1.2 0.8-0.7zm1.8 3.7c0.3 0 0.5 0.2 0.5 0.5 0 0.3-0.2 0.5-0.5 0.5-0.3 0-0.5-0.2-0.5-0.5 0-0.3 0.2-0.5 0.5-0.5z"/>
			<path id="Path 21" class="s22" d="m133.5 138c0.3 0 0.5 0.2 0.5 0.5 0 0.3-0.2 0.5-0.5 0.5-0.3 0-0.5-0.2-0.5-0.5 0-0.3 0.2-0.5 0.5-0.5zm-3 3c0.3 0 0.5 0.2 0.5 0.5 0 0.3-0.2 0.5-0.5 0.5-0.3 0-0.5-0.2-0.5-0.5 0-0.3 0.2-0.5 0.5-0.5zm3 7c0.3 0 0.5 0.2 0.5 0.5 0 0.3-0.2 0.5-0.5 0.5-0.3 0-0.5-0.2-0.5-0.5 0-0.3 0.2-0.5 0.5-0.5z"/>
			<path id="Path 22" class="s23" d="m126.5 138c0.3 0 0.5 0.2 0.5 0.5 0 0.3-0.2 0.5-0.5 0.5-0.3 0-0.5-0.2-0.5-0.5 0-0.3 0.2-0.5 0.5-0.5zm0.9 4.1c1.1-0.1 1.7 0.2 1.5 0.5-0.2 0.3-1.1 0.3-1.9 0.1-1.1-0.4-1-0.6 0.4-0.6zm4.5-0.1c0.8 0 1.1 0.3 0.8 0.8-0.4 0.4-1 0.4-1.5-0.1-0.4-0.4-0.1-0.7 0.7-0.7zm7.6 0c0.3 0 0.5 0.2 0.5 0.5 0 0.3-0.2 0.5-0.5 0.5-0.3 0-0.5-0.2-0.5-0.5 0-0.3 0.2-0.5 0.5-0.5zm2.9 0.1c1.1-0.1 1.7 0.2 1.5 0.5-0.2 0.3-1.1 0.3-1.9 0.1-1.1-0.4-1-0.6 0.4-0.6zm-5.9 7.9c0.3 0 0.5 0.2 0.5 0.5 0 0.3-0.2 0.5-0.5 0.5-0.3 0-0.5-0.2-0.5-0.5 0-0.3 0.2-0.5 0.5-0.5z"/>
			<path id="Path 23" class="s24" d="m133.5 136c0.3 0 0.5 0.2 0.5 0.5 0 0.3-0.2 0.5-0.5 0.5-0.3 0-0.5-0.2-0.5-0.5 0-0.3 0.2-0.5 0.5-0.5zm-5 2c0.3 0 0.5 0.2 0.5 0.5 0 0.3-0.2 0.5-0.5 0.5-0.3 0-0.5-0.2-0.5-0.5 0-0.3 0.2-0.5 0.5-0.5zm4 0c0.3 0 0.5 0.2 0.5 0.5 0 0.3-0.2 0.5-0.5 0.5-0.3 0-0.5-0.2-0.5-0.5 0-0.3 0.2-0.5 0.5-0.5zm7 0c0.3 0 0.5 0.2 0.5 0.5 0 0.3-0.2 0.5-0.5 0.5-0.3 0-0.5-0.2-0.5-0.5 0-0.3 0.2-0.5 0.5-0.5zm-14 3c0.3 0 0.5 0.2 0.5 0.5 0 0.3-0.2 0.5-0.5 0.5-0.3 0-0.5-0.2-0.5-0.5 0-0.3 0.2-0.5 0.5-0.5zm19 0c0.3 0 0.5 0.2 0.5 0.5 0 0.3-0.2 0.5-0.5 0.5-0.3 0-0.5-0.2-0.5-0.5 0-0.3 0.2-0.5 0.5-0.5zm-11.1 8c0.3 0 0.8 0.4 1.1 1 0.3 0.6 0.3 1 0 1-0.3 0-0.8-0.4-1.1-1-0.3-0.6-0.3-1 0-1z"/>
			<path id="Path 24" class="s25" d="m129.5 142c0.3 0 0.5 0.2 0.5 0.5 0 0.3-0.2 0.5-0.5 0.5-0.3 0-0.5-0.2-0.5-0.5 0-0.3 0.2-0.5 0.5-0.5zm11 0c0.3 0 0.5 0.2 0.5 0.5 0 0.3-0.2 0.5-0.5 0.5-0.3 0-0.5-0.2-0.5-0.5 0-0.3 0.2-0.5 0.5-0.5zm-3 1c0.3 0 0.5 0.2 0.5 0.5 0 0.3-0.2 0.5-0.5 0.5-0.3 0-0.5-0.2-0.5-0.5 0-0.3 0.2-0.5 0.5-0.5zm0 4c0.3 0 0.5 0.2 0.5 0.5 0 0.3-0.2 0.5-0.5 0.5-0.3 0-0.5-0.2-0.5-0.5 0-0.3 0.2-0.5 0.5-0.5z"/>
			<path id="Path 25" class="s26" d="m137.7 132.3c0.5 0.4 0.5 1 0 1.4-0.4 0.5-0.8 0.1-0.8-0.7 0-0.8 0.4-1.2 0.8-0.8zm-4.2 4.8c0.3 0 0.5 0.2 0.5 0.5 0 0.3-0.2 0.5-0.5 0.5-0.3 0-0.5-0.2-0.5-0.5 0-0.3 0.2-0.5 0.5-0.5zm-6 1c0.3 0 0.5 0.2 0.5 0.5 0 0.3-0.2 0.5-0.5 0.5-0.3 0-0.5-0.2-0.5-0.5 0-0.3 0.2-0.5 0.5-0.5zm16 0c0.3 0 0.5 0.2 0.5 0.5 0 0.3-0.2 0.5-0.5 0.5-0.3 0-0.5-0.2-0.5-0.5 0-0.3 0.2-0.5 0.5-0.5zm-5.6 4c0.8 0 1.1 0.3 0.8 0.7-0.4 0.5-1 0.4-1.4 0-0.5-0.4-0.2-0.7 0.6-0.7z"/>
		</g>
	</g>
</svg>