<svg version="1.2" xmlns="http://www.w3.org/2000/svg" viewBox="0 0 80 80" width="80" height="80">
	<title>Frame_can</title>
	<style>
		.s0 { fill: #726d69 } 
		.s1 { fill: #8a9b7d } 
		.s2 { fill: #a7b898 } 
	</style>
	<g id="icon_통조림(캔)">
		<path id="Path 0" class="s0" d="m39.5 18.2c3.9-0.1 11.5 0.5 17 1.3 5.8 0.9 11.4 2.4 13.3 3.5 3.1 1.9 3.2 2.2 3.1 8.3 0 3.4-0.2 9.7-0.9 21.7l-4.8 2.1c-2.6 1.1-5.4 2.4-6.2 2.8-0.8 0.5-5.1 1.6-9.5 2.5-5.2 1-10.2 1.4-14.5 1-3.6-0.3-7.7-0.6-9.2-0.7-1.4-0.1-3-0.6-3.5-1-0.4-0.4-1.5-0.7-2.3-0.7-0.8 0-3.6-1.1-6.3-2.5-2.6-1.4-5.3-3.7-6-5.2-0.7-1.6-1.4-5.9-1.5-9.8-0.2-3.8-0.5-8.3-0.8-10-0.3-1.9 0.1-3.9 1-5.2 0.9-1.3 3.1-3.1 4.8-4 1.8-1 6.9-2.3 11.3-2.8 4.4-0.6 11.1-1.2 15-1.3z"/>
		<path id="Path 1" class="s1" d="m38 24.3c4.7 0 6.5 0.2 4 0.4-2.5 0.2-6.3 0.2-8.5 0-2.2-0.2-0.2-0.4 4.5-0.4zm9.5-0.3c0.3 0 0.5 0.2 0.5 0.5 0 0.3-0.2 0.5-0.5 0.5-0.3 0-0.5-0.2-0.5-0.5 0-0.3 0.2-0.5 0.5-0.5zm10.9 1.3c2.8 0.5 5.6 1.3 6.1 1.8 0.6 0.5 0.5 1-0.5 1.3-0.8 0.3-4.4 0.9-8 1.4-3.6 0.4-11 0.7-16.5 0.6-5.5-0.2-12.8-0.7-16.3-1.3-3.4-0.6-6.2-1.6-6.2-2.1 0-0.6 1-1.2 2.3-1.5 1.2-0.3 3.2-0.5 4.5-0.5 1.5 0 2.1 0.5 2 1.7-0.3 1.6 1 1.8 13.6 2.1 8.1 0.1 14.3-0.2 15-0.7 0.8-0.8 0.8-1.3 0-2.3-1-1.1-0.2-1.1 4-0.5zm-43.6 7.1c0.9 0.4 4 1.2 6.7 1.9 2.8 0.6 11.5 1.1 19.5 1 8 0 17.1-0.4 20.2-0.9 5.3-0.8 5.7-0.8 6 1.1 0.2 1.1 0.2 4.5 0 7.5-0.3 5.4-0.4 5.5-5 7.9-2.6 1.3-5.6 2.7-6.7 3.2-1.1 0.4-5.6 1.1-10 1.4-4.4 0.4-11 0.2-14.7-0.4-3.8-0.6-8.7-1.9-10.9-2.9-2.3-0.9-4.5-2.4-4.9-3.2-0.4-0.8-1-5.1-1.3-9.4-0.5-7.1-0.4-7.8 1.1-7.2z"/>
		<path id="Path 2" class="s2" d="m50.3 25c2.4 0.3 3.9 1.1 4 2 0.2 1.3-2 1.5-14.3 1.5-12.2 0-14.5-0.2-14.5-1.5 0-1.2 2.1-1.6 10.5-2 5.8-0.3 12.2-0.3 14.3 0z"/>
		<path id="Path 3" class="s0" d="m25.8 38c0.4 0 2.2 0.9 3.9 2 3.1 1.9 3.6 1.9 8 0.5 2.7-0.8 7.3-1.5 10.3-1.5 3 0 6.3 0.5 7.4 1.2 1.4 1 1.7 2 1.2 4-0.5 2.5-1.3 2.9-6.4 3.9-4.2 0.9-7.1 0.9-11.2 0.1-4.9-1-5.9-0.9-9 0.9-1.9 1.1-4.1 1.8-4.8 1.5-0.7-0.4-1-1.7-0.8-3.4 0.3-1.5 0.1-3.4-0.4-4.2-0.5-0.9-0.5-2.2 0.1-3.3 0.5-0.9 1.3-1.7 1.7-1.7z"/>
	</g>
</svg>