<svg version="1.2" xmlns="http://www.w3.org/2000/svg" viewBox="0 0 80 80" width="80" height="80">
	<title>Frame_candy</title>
	<style>
		.s0 { fill: #c37c99 } 
		.s1 { fill: #e5a4bf } 
		.s2 { fill: #f2bdd2 } 
	</style>
	<g id="icon_별사탕(개)">
		<path id="Path 0" class="s0" d="m41.5 15.6c3.1 0.3 4.5 1.1 6.3 3.4 1.5 2.1 2.7 2.8 4 2.4 0.9-0.3 3.2 0.1 5 1 1.7 0.9 3.2 2.4 3.3 3.4 0.1 0.9 0.1 2.9 0 4.5-0.1 1.5 0.7 3.4 1.9 4.5 1.1 0.9 2.3 3.4 2.7 5.5 0.6 2.7 0.5 3.7-0.4 3.7-0.7 0-1.3 0.7-1.3 1.5 0 0.8-0.6 1.7-1.2 1.9-0.7 0.2-1.9 2.3-2.6 4.7-0.7 2.4-2.1 5-3.2 5.7-1.1 0.7-3.4 1-5.2 0.7-2.8-0.5-3.8-0.1-6 2.5-1.6 1.6-3.7 3-4.8 3-1.1 0-3.2-1.4-4.7-3-2.3-2.6-3.3-3-6-2.5-1.9 0.3-4.2 0-5.3-0.7-1.1-0.7-2.5-3.3-3.2-5.7-0.7-2.4-1.9-4.5-2.5-4.7-0.7-0.2-1.3-1.1-1.3-1.9 0-0.8-0.6-1.5-1.2-1.5-1 0-1.1-1-0.5-3.7 0.4-2.1 1.6-4.6 2.7-5.5 1.2-1.1 2-3 1.9-4.5-0.1-1.6-0.1-3.6-0.1-4.5 0-1 1.5-2.5 3.3-3.4 1.9-0.9 4.2-1.3 5.2-1 1.1 0.4 2.4-0.3 3.8-2.1 1.1-1.6 2.8-3.1 3.7-3.4 0.9-0.4 3.5-0.5 5.7-0.3z"/>
		<path id="Path 1" class="s1" d="m39.9 21c0.9 0 2.7 1.1 4.1 2.5 1.4 1.4 4.2 2.9 6.3 3.3 3.5 0.7 3.7 0.9 3.7 4.5 0 2 0.2 4.4 0.5 5.2 0.3 0.8 1.2 1.5 2 1.5 0.8 0 1.7 0.6 1.9 1.3 0.2 0.6-0.7 2.3-2.1 3.7-1.3 1.4-2.5 4-2.7 6-0.3 3.3-0.5 3.5-3.7 3.2-2.5-0.3-4.3 0.3-9.9 4.8l-3.2-2.6c-2.4-1.9-4.2-2.5-6.7-2.2-3.2 0.3-3.4 0.1-3.7-3.2-0.2-2-1.4-4.6-2.7-6-1.4-1.4-2.3-3.1-2.1-3.8 0.2-0.6 1.1-1.2 1.9-1.2 0.8 0 1.7-0.7 2-1.5 0.3-0.8 0.5-3.2 0.5-5.3 0-3.5 0.2-3.7 3.7-4.4 2.1-0.4 4.9-1.9 6.2-3.3 1.3-1.4 3.1-2.5 4-2.5z"/>
		<path id="Path 2" class="s2" d="m41.2 27.7c1.6 1 3 2.3 2.9 2.8 0 0.6-1.1 1.1-2.3 1.3-1.3 0.2-2.9-0.4-3.6-1.2-0.6-0.9-0.9-2.3-0.6-3.2 0.6-1.4 0.9-1.4 3.6 0.3zm-8.7 8.3c0.8 0 1.7 0.7 2 1.5 0.3 0.8 1.2 1.5 2 1.5 0.8 0 1.5 0.7 1.5 1.5 0 0.8-0.6 1.8-1.3 2.1-0.6 0.3-2.2 0.1-3.5-0.5-1.4-0.7-2.2-2-2.2-3.6 0-1.6 0.6-2.5 1.5-2.5zm13.3 1c0.4 0 1.1 0.3 1.5 0.7 0.5 0.5 1.6 0.8 2.4 0.8 0.9 0 1.8 0.6 2 1.3 0.1 0.6-0.7 1.6-2 2.1-1.2 0.4-2.8 0.6-3.5 0.2-0.7-0.3-1.5-1.2-1.7-1.8-0.3-0.7-0.3-1.8 0-2.3 0.4-0.5 0.9-1 1.3-1zm-5.6 11.3c2.2 0.2 3.4 0.8 3.5 2 0.2 1-0.5 1.9-1.7 2.2-1.1 0.3-2.7-0.1-3.5-0.8-0.9-0.6-1.6-1.8-1.6-2.4 0.1-0.8 1.3-1.2 3.3-1z"/>
	</g>
</svg>