<svg version="1.2" xmlns="http://www.w3.org/2000/svg" viewBox="0 0 300 70" width="300" height="70">
	<title>PragrassFrame</title>
	<style>
		.s0 { fill: #8b8d8f } 
		.s1 { fill: #f9f9f9 } 
	</style>
	<g id="icon_frame(상단바4)">
		<path id="Path 0" class="s0" d="m11.8 2.5h137.9c135.2 0.1 137.9 0.1 140.8 2 1.6 1.1 3 2.8 3.2 3.8 0.2 0.9 0.7 1.7 1.3 1.7 0.6 0 1 8.5 1 23.5 0 18.9-0.3 24.1-1.5 26.5-0.8 1.6-2.7 3.8-4.3 4.7-2.5 1.6-12.1 1.7-278.3 1.8l-2.4-2.3c-1.4-1.2-3.3-3.4-4.2-5-1.4-2.2-1.6-4.7-1.4-14.2 0.2-6.3 0.3-14.6 0.2-18.5-0.1-3.9-0.2-7.7-0.3-8.5-0.1-0.8-0.1-2.9-0.1-4.6 0-2.2 1-4 4.1-7z"/>
		<path id="Path 1" class="s1" d="m150.3 8.3c134.7 0.2 136.1 0.2 137.9 2.2 1.5 1.7 1.7 4.1 1.8 16 0.1 7.7 0.2 14.7 0.2 15.5 0.1 0.8 0.1 4.4 0 8-0.1 4.8-0.7 7-2 8.5-1.8 2-3.3 2-137.8 2.3-128.3 0.2-136 0.1-138.2-1.5-2.2-1.8-2.2-2.1-2.1-22.8 0-11.6 0.1-21.9 0.1-23 0-1.1 0.9-2.8 2-3.7 1.9-1.6 11.3-1.7 138.1-1.5z"/>
	</g>
</svg>