<svg version="1.2" xmlns="http://www.w3.org/2000/svg" viewBox="0 0 300 70" width="300" height="70">
	<title>PragrassFrame</title>
	<style>
		.s0 { fill: #f9f9f9 } 
	</style>
	<g id="icon_frame(상단바4)">
		<path id="Path 1" class="s0" d="m150.3 8.3c134.7 0.2 136.1 0.2 137.9 2.2 1.5 1.7 1.7 4.1 1.8 16 0.1 7.7 0.2 14.7 0.2 15.5 0.1 0.8 0.1 4.4 0 8-0.1 4.8-0.7 7-2 8.5-1.8 2-3.3 2-137.8 2.3-128.3 0.2-136 0.1-138.2-1.5-2.2-1.8-2.2-2.1-2.1-22.8 0-11.6 0.1-21.9 0.1-23 0-1.1 0.9-2.8 2-3.7 1.9-1.6 11.3-1.7 138.1-1.5z"/>
	</g>
</svg>