<svg version="1.2" xmlns="http://www.w3.org/2000/svg" viewBox="0 0 80 80" width="80" height="80">
	<title>Frame_waker</title>
	<style>
		.s0 { fill: #456686 } 
		.s1 { fill: #659ed7 } 
	</style>
	<g id="icon_신발(보)">
		<path id="Path 0" fill-rule="evenodd" class="s0" d="m35.3 21.1c0.9-0.1 1.9 0.3 2.2 0.9 0.3 0.5 2.6 2 5.3 3.2 3.4 1.6 7.1 2.3 13.7 2.6 6.5 0.3 9.7 0.9 11.5 2.2 1.4 1 3.8 3.7 5.5 6 2.4 3.4 2.9 5.2 2.7 8.4-0.1 2.3-0.8 4.7-1.5 5.5-0.7 0.8-1.7 2.4-2.2 3.5-0.6 1.2-2.4 2.8-4 3.6-2.2 1-8 1.5-21.5 1.8-11.5 0.2-21.5-0.1-26.5-0.9-4.4-0.6-8.9-1.3-10-1.4-1.1-0.1-2.8-1.3-3.8-2.6-1-1.3-1.8-4.4-1.9-6.9-0.1-2.5 0-7.9 0.1-12 0.1-4.1 0.6-8 0.9-8.7 0.4-0.7 1.6-1.3 2.7-1.5 1.1-0.1 4.5 0.4 7.5 1.1 4.3 1.1 6.4 1.2 9.5 0.3 2.2-0.6 4.9-2 6-3.1 1.1-1.1 2.8-2 3.8-2zm24.7 21.9c0 0.5 1.2 1 2.8 1 1.5 0 3.7-0.2 5-0.5 1.2-0.3 2.2-1 2.2-1.5 0-0.5-0.9-2.4-2-4-1.1-1.6-2.6-3-3.4-3-0.8 0-2.1 1.6-3 3.5-0.9 1.9-1.6 4-1.6 4.5zm-49.2 6.5c0.4 0.6 3.6 1.6 7.2 2.4 3.8 0.7 12.7 1.2 21.5 1.1 8.3-0.1 16.4-0.2 18-0.1 1.7 0 4.5-0.2 6.3-0.5 1.7-0.2 3.2-1 3.2-1.7 0-0.9-5.1-1.2-21.8-1.3-11.9-0.1-23.9-0.6-26.7-1.2-2.7-0.6-5.7-1.4-6.6-1.7-1-0.5-1.6-0.2-1.7 0.6-0.1 0.8 0.2 1.9 0.6 2.4z"/>
		<path id="Path 1" class="s1" d="m36.3 28.1c0.4 0 0.9 0.3 1.2 0.9 0.3 0.5-0.2 1.6-1 2.2-0.9 0.7-1.6 2.5-1.5 4 0 1.8 0.5 2.8 1.5 2.8 0.8 0 2.4-1 3.5-2.3 1.1-1.2 2-2.5 2-3 0-0.4 0.9-0.7 2-0.7 1.8 0 1.9 0.4 1.3 4-0.7 3.6-0.6 4 1.2 4 1.2 0 2.7-1.2 3.8-3 1.2-2.1 2.5-3 4.2-3 1.6 0 2.3 0.5 2.1 1.2-0.3 0.7-1.1 3-1.8 5.1-0.7 2-1.8 3.8-2.3 3.8-0.5 0-6.6 0-13.5-0.1-6.9-0.1-13.4-0.3-14.5-0.5-1.1-0.1-2.7-0.5-3.5-0.8-0.8-0.3-3.6-0.8-11-1.7l0.6-5.3c0.3-2.8 0.7-5.3 0.8-5.5 0.1-0.2 1.2 0.1 2.4 0.7 1.2 0.6 4.3 1.1 7 1 2.6 0 7-0.9 9.7-1.9 2.8-0.9 5.3-1.8 5.8-1.9z"/>
	</g>
</svg>